solid OpenSCAD_Model
  facet normal 1 -0 0
    outer loop
      vertex 70 25.5105 18.1162
      vertex 70 25.8579 17.649
      vertex 70 26.0892 18.825
    endloop
  endfacet
  facet normal 1 0 0
    outer loop
      vertex 70 25.5105 18.1162
      vertex 70 25.2414 17.201
      vertex 70 25.8579 17.649
    endloop
  endfacet
  facet normal 1 -0 0
    outer loop
      vertex 70 24.5556 17.4939
      vertex 70 25.2414 17.201
      vertex 70 25.5105 18.1162
    endloop
  endfacet
  facet normal 1 0 0
    outer loop
      vertex 70 25.2414 17.201
      vertex 70 24.5556 17.4939
      vertex 70 24.5556 16.8646
    endloop
  endfacet
  facet normal 1 0 0
    outer loop
      vertex 70 25.8579 17.649
      vertex 70 26.509 18.825
      vertex 70 26.0892 18.825
    endloop
  endfacet
  facet normal 1 0 0
    outer loop
      vertex 70 26.509 18.825
      vertex 70 25.8579 17.649
      vertex 70 26.509 13.5
    endloop
  endfacet
  facet normal 1 0 0
    outer loop
      vertex 70 26.509 13.5
      vertex 70 25.8579 17.649
      vertex 70 25.8579 13.5
    endloop
  endfacet
  facet normal 0 0 -1
    outer loop
      vertex 70 26.0892 18.825
      vertex 71 26.509 18.825
      vertex 71 26.0892 18.825
    endloop
  endfacet
  facet normal -0 0 -1
    outer loop
      vertex 71 26.509 18.825
      vertex 70 26.0892 18.825
      vertex 70 26.509 18.825
    endloop
  endfacet
  facet normal 0 0.774612 -0.632437
    outer loop
      vertex 71 25.5105 18.1162
      vertex 70 26.0892 18.825
      vertex 71 26.0892 18.825
    endloop
  endfacet
  facet normal 0 0.774612 -0.632437
    outer loop
      vertex 70 26.0892 18.825
      vertex 71 25.5105 18.1162
      vertex 70 25.5105 18.1162
    endloop
  endfacet
  facet normal 0 0.545976 -0.837801
    outer loop
      vertex 70 24.5556 17.4939
      vertex 71 25.5105 18.1162
      vertex 71 24.5556 17.4939
    endloop
  endfacet
  facet normal 0 0.545976 -0.837801
    outer loop
      vertex 71 25.5105 18.1162
      vertex 70 24.5556 17.4939
      vertex 70 25.5105 18.1162
    endloop
  endfacet
  facet normal 0 1 -0
    outer loop
      vertex 71 24.5556 16.8646
      vertex 70 24.5556 17.4939
      vertex 71 24.5556 17.4939
    endloop
  endfacet
  facet normal 0 1 0
    outer loop
      vertex 70 24.5556 17.4939
      vertex 71 24.5556 16.8646
      vertex 70 24.5556 16.8646
    endloop
  endfacet
  facet normal 0 -0.440489 0.897758
    outer loop
      vertex 70 25.2414 17.201
      vertex 71 24.5556 16.8646
      vertex 71 25.2414 17.201
    endloop
  endfacet
  facet normal 0 -0.440489 0.897758
    outer loop
      vertex 71 24.5556 16.8646
      vertex 70 25.2414 17.201
      vertex 70 24.5556 16.8646
    endloop
  endfacet
  facet normal 0 -0.587822 0.808991
    outer loop
      vertex 70 25.8579 17.649
      vertex 71 25.2414 17.201
      vertex 71 25.8579 17.649
    endloop
  endfacet
  facet normal 0 -0.587822 0.808991
    outer loop
      vertex 71 25.2414 17.201
      vertex 70 25.8579 17.649
      vertex 70 25.2414 17.201
    endloop
  endfacet
  facet normal 0 1 -0
    outer loop
      vertex 71 25.8579 13.5
      vertex 70 25.8579 17.649
      vertex 71 25.8579 17.649
    endloop
  endfacet
  facet normal 0 1 0
    outer loop
      vertex 70 25.8579 17.649
      vertex 71 25.8579 13.5
      vertex 70 25.8579 13.5
    endloop
  endfacet
  facet normal -0 0 1
    outer loop
      vertex 70 26.509 13.5
      vertex 71 25.8579 13.5
      vertex 71 26.509 13.5
    endloop
  endfacet
  facet normal 0 0 1
    outer loop
      vertex 71 25.8579 13.5
      vertex 70 26.509 13.5
      vertex 70 25.8579 13.5
    endloop
  endfacet
  facet normal 0 -1 0
    outer loop
      vertex 70 26.509 13.5
      vertex 71 26.509 18.825
      vertex 70 26.509 18.825
    endloop
  endfacet
  facet normal 0 -1 -0
    outer loop
      vertex 71 26.509 18.825
      vertex 70 26.509 13.5
      vertex 71 26.509 13.5
    endloop
  endfacet
  facet normal 1 0 0
    outer loop
      vertex 70 35.0403 17.4593
      vertex 70 34.261 17.9457
      vertex 70 34.5391 16.2057
    endloop
  endfacet
  facet normal 1 0 0
    outer loop
      vertex 70 34.2565 18.7436
      vertex 70 34.261 17.9457
      vertex 70 34.7404 18.2482
    endloop
  endfacet
  facet normal 1 0 0
    outer loop
      vertex 70 33.5676 18.3764
      vertex 70 34.2565 18.7436
      vertex 70 33.5746 18.9153
    endloop
  endfacet
  facet normal 1 0 0
    outer loop
      vertex 70 34.2565 18.7436
      vertex 70 33.5676 18.3764
      vertex 70 34.261 17.9457
    endloop
  endfacet
  facet normal 1 -0 0
    outer loop
      vertex 70 32.6998 18.6045
      vertex 70 33.5676 18.3764
      vertex 70 33.5746 18.9153
    endloop
  endfacet
  facet normal 1 0 0
    outer loop
      vertex 70 33.5676 18.3764
      vertex 70 32.6998 18.6045
      vertex 70 32.9158 17.9963
    endloop
  endfacet
  facet normal 1 0 0
    outer loop
      vertex 70 32.1762 17.7201
      vertex 70 32.9158 17.9963
      vertex 70 32.6998 18.6045
    endloop
  endfacet
  facet normal 1 0 0
    outer loop
      vertex 70 32.9158 17.9963
      vertex 70 32.1762 17.7201
      vertex 70 32.6095 16.2057
    endloop
  endfacet
  facet normal 1 0 0
    outer loop
      vertex 70 32.6095 16.2057
      vertex 70 32.1762 17.7201
      vertex 70 32 16.2057
    endloop
  endfacet
  facet normal 1 0 0
    outer loop
      vertex 70 32.6095 16.2057
      vertex 70 32 16.2057
      vertex 70 32.4774 14.0499
    endloop
  endfacet
  facet normal 1 0 0
    outer loop
      vertex 70 34.5391 16.2057
      vertex 70 35.1486 16.2057
      vertex 70 35.0403 17.4593
    endloop
  endfacet
  facet normal 1 -0 0
    outer loop
      vertex 70 34.261 17.9457
      vertex 70 35.0403 17.4593
      vertex 70 34.7404 18.2482
    endloop
  endfacet
  facet normal 1 0 0
    outer loop
      vertex 70 35.1486 16.2057
      vertex 70 34.5391 16.2057
      vertex 70 34.9743 14.6991
    endloop
  endfacet
  facet normal 1 0 0
    outer loop
      vertex 70 34.261 14.4696
      vertex 70 34.9743 14.6991
      vertex 70 34.5391 16.2057
    endloop
  endfacet
  facet normal 1 0 0
    outer loop
      vertex 70 34.9743 14.6991
      vertex 70 34.261 14.4696
      vertex 70 34.452 13.8134
    endloop
  endfacet
  facet normal 1 -0 0
    outer loop
      vertex 70 33.5746 14.0358
      vertex 70 34.452 13.8134
      vertex 70 34.261 14.4696
    endloop
  endfacet
  facet normal 1 0 0
    outer loop
      vertex 70 33.5746 14.0358
      vertex 70 33.5746 13.5
      vertex 70 34.452 13.8134
    endloop
  endfacet
  facet normal 1 -0 0
    outer loop
      vertex 70 32.4774 14.0499
      vertex 70 33.5746 14.0358
      vertex 70 32.8876 14.4677
    endloop
  endfacet
  facet normal 1 0 0
    outer loop
      vertex 70 33.5746 14.0358
      vertex 70 32.4774 14.0499
      vertex 70 33.5746 13.5
    endloop
  endfacet
  facet normal 1 0 0
    outer loop
      vertex 70 32.4774 14.0499
      vertex 70 32.8876 14.4677
      vertex 70 32.6095 16.2057
    endloop
  endfacet
  facet normal 0 -0.861373 0.507973
    outer loop
      vertex 70 34.452 13.8134
      vertex 71 34.9743 14.6991
      vertex 70 34.9743 14.6991
    endloop
  endfacet
  facet normal 0 -0.861373 0.507973
    outer loop
      vertex 71 34.9743 14.6991
      vertex 70 34.452 13.8134
      vertex 71 34.452 13.8134
    endloop
  endfacet
  facet normal 0 -0.993374 0.114929
    outer loop
      vertex 70 34.9743 14.6991
      vertex 71 35.1486 16.2057
      vertex 70 35.1486 16.2057
    endloop
  endfacet
  facet normal 0 -0.993374 0.114929
    outer loop
      vertex 71 35.1486 16.2057
      vertex 70 34.9743 14.6991
      vertex 71 34.9743 14.6991
    endloop
  endfacet
  facet normal 0 -0.996288 -0.0860801
    outer loop
      vertex 70 35.1486 16.2057
      vertex 71 35.0403 17.4593
      vertex 70 35.0403 17.4593
    endloop
  endfacet
  facet normal 0 -0.996288 -0.0860801
    outer loop
      vertex 71 35.0403 17.4593
      vertex 70 35.1486 16.2057
      vertex 71 35.1486 16.2057
    endloop
  endfacet
  facet normal 0 -0.934728 -0.355364
    outer loop
      vertex 70 35.0403 17.4593
      vertex 71 34.7404 18.2482
      vertex 70 34.7404 18.2482
    endloop
  endfacet
  facet normal 0 -0.934728 -0.355364
    outer loop
      vertex 71 34.7404 18.2482
      vertex 70 35.0403 17.4593
      vertex 71 35.0403 17.4593
    endloop
  endfacet
  facet normal 0 -0.715387 -0.698729
    outer loop
      vertex 70 34.7404 18.2482
      vertex 71 34.2565 18.7436
      vertex 70 34.2565 18.7436
    endloop
  endfacet
  facet normal 0 -0.715387 -0.698729
    outer loop
      vertex 71 34.2565 18.7436
      vertex 70 34.7404 18.2482
      vertex 71 34.7404 18.2482
    endloop
  endfacet
  facet normal 0 -0.244251 -0.969712
    outer loop
      vertex 70 33.5746 18.9153
      vertex 71 34.2565 18.7436
      vertex 71 33.5746 18.9153
    endloop
  endfacet
  facet normal -0 -0.244251 -0.969712
    outer loop
      vertex 71 34.2565 18.7436
      vertex 70 33.5746 18.9153
      vertex 70 34.2565 18.7436
    endloop
  endfacet
  facet normal 0 0.334805 -0.942287
    outer loop
      vertex 70 32.6998 18.6045
      vertex 71 33.5746 18.9153
      vertex 71 32.6998 18.6045
    endloop
  endfacet
  facet normal 0 0.334805 -0.942287
    outer loop
      vertex 71 33.5746 18.9153
      vertex 70 32.6998 18.6045
      vertex 70 33.5746 18.9153
    endloop
  endfacet
  facet normal 0 0.860504 -0.509443
    outer loop
      vertex 71 32.1762 17.7201
      vertex 70 32.6998 18.6045
      vertex 71 32.6998 18.6045
    endloop
  endfacet
  facet normal 0 0.860504 -0.509443
    outer loop
      vertex 70 32.6998 18.6045
      vertex 71 32.1762 17.7201
      vertex 70 32.1762 17.7201
    endloop
  endfacet
  facet normal 0 0.993296 -0.115597
    outer loop
      vertex 71 32 16.2057
      vertex 70 32.1762 17.7201
      vertex 71 32.1762 17.7201
    endloop
  endfacet
  facet normal 0 0.993296 -0.115597
    outer loop
      vertex 70 32.1762 17.7201
      vertex 71 32 16.2057
      vertex 70 32 16.2057
    endloop
  endfacet
  facet normal 0 0.976344 0.216224
    outer loop
      vertex 71 32.4774 14.0499
      vertex 70 32 16.2057
      vertex 71 32 16.2057
    endloop
  endfacet
  facet normal 0 0.976344 0.216224
    outer loop
      vertex 70 32 16.2057
      vertex 71 32.4774 14.0499
      vertex 70 32.4774 14.0499
    endloop
  endfacet
  facet normal -0 0.448049 0.894009
    outer loop
      vertex 70 33.5746 13.5
      vertex 71 32.4774 14.0499
      vertex 71 33.5746 13.5
    endloop
  endfacet
  facet normal 0 0.448049 0.894009
    outer loop
      vertex 71 32.4774 14.0499
      vertex 70 33.5746 13.5
      vertex 70 32.4774 14.0499
    endloop
  endfacet
  facet normal 0 -0.33638 0.941726
    outer loop
      vertex 70 34.452 13.8134
      vertex 71 33.5746 13.5
      vertex 71 34.452 13.8134
    endloop
  endfacet
  facet normal 0 -0.33638 0.941726
    outer loop
      vertex 71 33.5746 13.5
      vertex 70 34.452 13.8134
      vertex 70 33.5746 13.5
    endloop
  endfacet
  facet normal 0 -0.987436 -0.158019
    outer loop
      vertex 70 32.8876 14.4677
      vertex 71 32.6095 16.2057
      vertex 70 32.6095 16.2057
    endloop
  endfacet
  facet normal 0 -0.987436 -0.158019
    outer loop
      vertex 71 32.6095 16.2057
      vertex 70 32.8876 14.4677
      vertex 71 32.8876 14.4677
    endloop
  endfacet
  facet normal 0 -0.985679 0.168631
    outer loop
      vertex 70 32.6095 16.2057
      vertex 71 32.9158 17.9963
      vertex 70 32.9158 17.9963
    endloop
  endfacet
  facet normal 0 -0.985679 0.168631
    outer loop
      vertex 71 32.9158 17.9963
      vertex 70 32.6095 16.2057
      vertex 71 32.6095 16.2057
    endloop
  endfacet
  facet normal 0 -0.503713 0.863871
    outer loop
      vertex 70 33.5676 18.3764
      vertex 71 32.9158 17.9963
      vertex 71 33.5676 18.3764
    endloop
  endfacet
  facet normal 0 -0.503713 0.863871
    outer loop
      vertex 71 32.9158 17.9963
      vertex 70 33.5676 18.3764
      vertex 70 32.9158 17.9963
    endloop
  endfacet
  facet normal -0 0.527597 0.849495
    outer loop
      vertex 70 34.261 17.9457
      vertex 71 33.5676 18.3764
      vertex 71 34.261 17.9457
    endloop
  endfacet
  facet normal 0 0.527597 0.849495
    outer loop
      vertex 71 33.5676 18.3764
      vertex 70 34.261 17.9457
      vertex 70 33.5676 18.3764
    endloop
  endfacet
  facet normal 0 0.987463 0.157849
    outer loop
      vertex 71 34.5391 16.2057
      vertex 70 34.261 17.9457
      vertex 71 34.261 17.9457
    endloop
  endfacet
  facet normal 0 0.987463 0.157849
    outer loop
      vertex 70 34.261 17.9457
      vertex 71 34.5391 16.2057
      vertex 70 34.5391 16.2057
    endloop
  endfacet
  facet normal 0 0.987409 -0.15819
    outer loop
      vertex 71 34.261 14.4696
      vertex 70 34.5391 16.2057
      vertex 71 34.5391 16.2057
    endloop
  endfacet
  facet normal 0 0.987409 -0.15819
    outer loop
      vertex 70 34.5391 16.2057
      vertex 71 34.261 14.4696
      vertex 70 34.261 14.4696
    endloop
  endfacet
  facet normal 0 0.53432 -0.845283
    outer loop
      vertex 70 33.5746 14.0358
      vertex 71 34.261 14.4696
      vertex 71 33.5746 14.0358
    endloop
  endfacet
  facet normal 0 0.53432 -0.845283
    outer loop
      vertex 71 34.261 14.4696
      vertex 70 33.5746 14.0358
      vertex 70 34.261 14.4696
    endloop
  endfacet
  facet normal 0 -0.532269 -0.846576
    outer loop
      vertex 70 32.8876 14.4677
      vertex 71 33.5746 14.0358
      vertex 71 32.8876 14.4677
    endloop
  endfacet
  facet normal -0 -0.532269 -0.846576
    outer loop
      vertex 71 33.5746 14.0358
      vertex 70 32.8876 14.4677
      vertex 70 33.5746 14.0358
    endloop
  endfacet
  facet normal 1 0 0
    outer loop
      vertex 66 55.6 15
      vertex 66 35.85 12
      vertex 66 55.6 2
    endloop
  endfacet
  facet normal 1 0 0
    outer loop
      vertex 66 55.6 15
      vertex 66 34.3 12
      vertex 66 35.85 12
    endloop
  endfacet
  facet normal 1 0 0
    outer loop
      vertex 66 34.3 12
      vertex 66 25 12
      vertex 66 34.3 6.5
    endloop
  endfacet
  facet normal 1 0 0
    outer loop
      vertex 66 55.6 15
      vertex 66 25 12
      vertex 66 34.3 12
    endloop
  endfacet
  facet normal 1 -0 0
    outer loop
      vertex 66 4.1 15
      vertex 66 25 12
      vertex 66 55.6 15
    endloop
  endfacet
  facet normal 1 0 0
    outer loop
      vertex 66 23.35 12
      vertex 66 23.2 5.02481
      vertex 66 23.35 2
    endloop
  endfacet
  facet normal 1 -0 0
    outer loop
      vertex 66 16.5 7.6883
      vertex 66 23.2 5.02481
      vertex 66 23.35 12
    endloop
  endfacet
  facet normal 1 0 0
    outer loop
      vertex 66 23.2 5.02481
      vertex 66 16.5 7.6883
      vertex 66 22.3902 3.62215
    endloop
  endfacet
  facet normal 1 0 0
    outer loop
      vertex 66 22.3902 3.62215
      vertex 66 16.5 7.6883
      vertex 66 20.9913 2.06855
    endloop
  endfacet
  facet normal 1 0 0
    outer loop
      vertex 66 16.5 7.6883
      vertex 66 23.35 12
      vertex 66 16.5 12
    endloop
  endfacet
  facet normal 1 0 0
    outer loop
      vertex 66 25 12
      vertex 66 4.1 15
      vertex 66 23.35 12
    endloop
  endfacet
  facet normal 1 0 0
    outer loop
      vertex 66 23.35 12
      vertex 66 4.1 15
      vertex 66 16.5 12
    endloop
  endfacet
  facet normal 1 -0 0
    outer loop
      vertex 66 5.1 11
      vertex 66 9 7.6883
      vertex 66 9 12
    endloop
  endfacet
  facet normal 1 0 -0
    outer loop
      vertex 66 7.60869 2.06855
      vertex 66 9 7.6883
      vertex 66 6.20983 3.62215
    endloop
  endfacet
  facet normal 1 0 0
    outer loop
      vertex 66 9 7.6883
      vertex 66 7.60869 2.06855
      vertex 66 7.70305 2
    endloop
  endfacet
  facet normal 1 0 0
    outer loop
      vertex 66 9 7.6883
      vertex 66 5.2 5.37122
      vertex 66 6.20983 3.62215
    endloop
  endfacet
  facet normal 1 0 0
    outer loop
      vertex 66 5.1 2
      vertex 66 5.2 5.37122
      vertex 66 5.1 11
    endloop
  endfacet
  facet normal 1 0 0
    outer loop
      vertex 66 9 7.6883
      vertex 66 5.1 11
      vertex 66 5.2 5.37122
    endloop
  endfacet
  facet normal 1 0 0
    outer loop
      vertex 66 16.5 12
      vertex 66 4.1 15
      vertex 66 9 12
    endloop
  endfacet
  facet normal 1 0 0
    outer loop
      vertex 66 4.1 15
      vertex 66 5.1 11
      vertex 66 9 12
    endloop
  endfacet
  facet normal 1 0 0
    outer loop
      vertex 66 5.1 11
      vertex 66 4.1 15
      vertex 66 4.1 11
    endloop
  endfacet
  facet normal 1 0 0
    outer loop
      vertex 66 55.6 2
      vertex 66 35.85 12
      vertex 66 35.85 2
    endloop
  endfacet
  facet normal 1 0 0
    outer loop
      vertex 66 34.3 6.5
      vertex 66 25 12
      vertex 66 25 6.5
    endloop
  endfacet
  facet normal 1 0 0
    outer loop
      vertex 66 23.35 2
      vertex 66 23.2 5.02481
      vertex 66 23.2 2
    endloop
  endfacet
  facet normal 1 0 0
    outer loop
      vertex 66 20.9913 2.06855
      vertex 66 16.5 7.6883
      vertex 66 20.897 2
    endloop
  endfacet
  facet normal 1 0 0
    outer loop
      vertex 66 7.70305 2
      vertex 66 16.5 7.6883
      vertex 66 9 7.6883
    endloop
  endfacet
  facet normal 1 0 0
    outer loop
      vertex 66 16.5 7.6883
      vertex 66 7.70305 2
      vertex 66 20.897 2
    endloop
  endfacet
  facet normal 1 0 0
    outer loop
      vertex 66 5.2 5.37122
      vertex 66 5.1 2
      vertex 66 5.2 2
    endloop
  endfacet
  facet normal -0 0 1
    outer loop
      vertex 66 25 12
      vertex 69 23.35 12
      vertex 69 25 12
    endloop
  endfacet
  facet normal 0 0 1
    outer loop
      vertex 69 23.35 12
      vertex 66 25 12
      vertex 66 23.35 12
    endloop
  endfacet
  facet normal -0 0 1
    outer loop
      vertex 66 35.85 12
      vertex 69 34.3 12
      vertex 69 35.85 12
    endloop
  endfacet
  facet normal 0 0 1
    outer loop
      vertex 69 34.3 12
      vertex 66 35.85 12
      vertex 66 34.3 12
    endloop
  endfacet
  facet normal -0 0 1
    outer loop
      vertex 66 5.2 2
      vertex 69 5.1 2
      vertex 69 5.2 2
    endloop
  endfacet
  facet normal 0 0 1
    outer loop
      vertex 69 5.1 2
      vertex 66 5.2 2
      vertex 66 5.1 2
    endloop
  endfacet
  facet normal -0 0 1
    outer loop
      vertex 66 23.35 2
      vertex 69 23.2 2
      vertex 69 23.35 2
    endloop
  endfacet
  facet normal 0 0 1
    outer loop
      vertex 69 23.2 2
      vertex 66 23.35 2
      vertex 66 23.2 2
    endloop
  endfacet
  facet normal -0 0 1
    outer loop
      vertex 66 20.897 2
      vertex 69 7.70305 2
      vertex 69 20.897 2
    endloop
  endfacet
  facet normal 0 0 1
    outer loop
      vertex 69 7.70305 2
      vertex 66 20.897 2
      vertex 66 7.70305 2
    endloop
  endfacet
  facet normal -0 0 1
    outer loop
      vertex 66 55.6 2
      vertex 69 35.85 2
      vertex 69 55.6 2
    endloop
  endfacet
  facet normal 0 0 1
    outer loop
      vertex 69 35.85 2
      vertex 66 55.6 2
      vertex 66 35.85 2
    endloop
  endfacet
  facet normal 0 -1 0
    outer loop
      vertex 66 23.35 2
      vertex 69 23.35 12
      vertex 66 23.35 12
    endloop
  endfacet
  facet normal 0 -1 -0
    outer loop
      vertex 69 23.35 12
      vertex 66 23.35 2
      vertex 69 23.35 2
    endloop
  endfacet
  facet normal 0 1 -0
    outer loop
      vertex 69 35.85 2
      vertex 66 35.85 12
      vertex 69 35.85 12
    endloop
  endfacet
  facet normal 0 1 0
    outer loop
      vertex 66 35.85 12
      vertex 69 35.85 2
      vertex 66 35.85 2
    endloop
  endfacet
  facet normal -0 0 1
    outer loop
      vertex 66 34.3 6.5
      vertex 71 25 6.5
      vertex 71 34.3 6.5
    endloop
  endfacet
  facet normal 0 0 1
    outer loop
      vertex 71 25 6.5
      vertex 66 34.3 6.5
      vertex 66 25 6.5
    endloop
  endfacet
  facet normal 0 1 -0
    outer loop
      vertex 71 25 6.5
      vertex 69 25 12
      vertex 71 25 12
    endloop
  endfacet
  facet normal 0 1 0
    outer loop
      vertex 66 25 6.5
      vertex 69 25 12
      vertex 71 25 6.5
    endloop
  endfacet
  facet normal 0 1 0
    outer loop
      vertex 69 25 12
      vertex 66 25 6.5
      vertex 66 25 12
    endloop
  endfacet
  facet normal 0 -1 0
    outer loop
      vertex 66 34.3 6.5
      vertex 69 34.3 12
      vertex 66 34.3 12
    endloop
  endfacet
  facet normal 0 -1 0
    outer loop
      vertex 71 34.3 6.5
      vertex 69 34.3 12
      vertex 66 34.3 6.5
    endloop
  endfacet
  facet normal 0 -1 0
    outer loop
      vertex 69 34.3 12
      vertex 71 34.3 6.5
      vertex 71 34.3 12
    endloop
  endfacet
  facet normal -1 0 0
    outer loop
      vertex 65 5.2 2
      vertex 65 5.1 2
      vertex 65 5.2 7
    endloop
  endfacet
  facet normal -1 0 0
    outer loop
      vertex 65 23.2 7
      vertex 65 55.6 2
      vertex 65 23.2 2
    endloop
  endfacet
  facet normal -1 0 0
    outer loop
      vertex 65 55.6 2
      vertex 65 23.2 7
      vertex 65 55.6 15
    endloop
  endfacet
  facet normal -1 0 0
    outer loop
      vertex 65 5.1 15
      vertex 65 23.2 7
      vertex 65 5.2 7
    endloop
  endfacet
  facet normal -1 0 0
    outer loop
      vertex 65 23.2 7
      vertex 65 5.1 15
      vertex 65 55.6 15
    endloop
  endfacet
  facet normal -1 0 0
    outer loop
      vertex 65 5.1 15
      vertex 65 5.2 7
      vertex 65 5.1 2
    endloop
  endfacet
  facet normal -1 0 0
    outer loop
      vertex 65 5.2 2
      vertex 65 23.2 7
      vertex 65 23.2 2
    endloop
  endfacet
  facet normal -1 -0 0
    outer loop
      vertex 65 23.2 7
      vertex 65 5.2 2
      vertex 65 5.2 7
    endloop
  endfacet
  facet normal -1 0 0
    outer loop
      vertex 69 5.2 2
      vertex 69 5.1 2
      vertex 69 5.2 5.37122
    endloop
  endfacet
  facet normal -1 0 0
    outer loop
      vertex 69 23.2 5.02481
      vertex 69 23.35 2
      vertex 69 23.2 2
    endloop
  endfacet
  facet normal -1 0 0
    outer loop
      vertex 69 35.85 12
      vertex 69 55.6 2
      vertex 69 35.85 2
    endloop
  endfacet
  facet normal -1 0 0
    outer loop
      vertex 69 55.6 15
      vertex 69 58.7 20
      vertex 69 58.7 15
    endloop
  endfacet
  facet normal -1 0 0
    outer loop
      vertex 69 55.6 2
      vertex 69 35.85 12
      vertex 69 55.6 15
    endloop
  endfacet
  facet normal -1 -0 0
    outer loop
      vertex 69 55.6 15
      vertex 69 35.85 12
      vertex 69 58.7 20
    endloop
  endfacet
  facet normal -1 0 0
    outer loop
      vertex 69 16.4758 17.923
      vertex 69 35.85 12
      vertex 69 34.3 12
    endloop
  endfacet
  facet normal -1 0 0
    outer loop
      vertex 69 16.4758 17.923
      vertex 69 34.3 12
      vertex 69 25 12
    endloop
  endfacet
  facet normal -1 0 0
    outer loop
      vertex 69 16.4758 17.923
      vertex 69 25 12
      vertex 69 23.35 12
    endloop
  endfacet
  facet normal -1 0 0
    outer loop
      vertex 69 23.35 2
      vertex 69 23.2 5.02481
      vertex 69 23.35 12
    endloop
  endfacet
  facet normal -1 0 0
    outer loop
      vertex 69 16.5 7.33061
      vertex 69 23.2 5.02481
      vertex 69 22.3902 3.62215
    endloop
  endfacet
  facet normal -1 0 0
    outer loop
      vertex 69 16.5 7.33061
      vertex 69 22.3902 3.62215
      vertex 69 20.9913 2.06855
    endloop
  endfacet
  facet normal -1 0 0
    outer loop
      vertex 69 16.5 7.33061
      vertex 69 20.9913 2.06855
      vertex 69 20.897 2
    endloop
  endfacet
  facet normal -1 0 0
    outer loop
      vertex 69 23.2 5.02481
      vertex 69 16.5 7.33061
      vertex 69 23.35 12
    endloop
  endfacet
  facet normal -1 0 0
    outer loop
      vertex 69 16.5 12
      vertex 69 23.35 12
      vertex 69 16.5 7.33061
    endloop
  endfacet
  facet normal -1 0 0
    outer loop
      vertex 69 16.4758 17.3674
      vertex 69 23.35 12
      vertex 69 16.5 12
    endloop
  endfacet
  facet normal -1 0 0
    outer loop
      vertex 69 16.4758 17.923
      vertex 69 23.35 12
      vertex 69 16.4758 17.3674
    endloop
  endfacet
  facet normal -1 0 0
    outer loop
      vertex 69 35.85 12
      vertex 69 16.4758 17.923
      vertex 69 58.7 20
    endloop
  endfacet
  facet normal -1 0 0
    outer loop
      vertex 69 9.79519 19.2144
      vertex 69 16.4758 17.923
      vertex 69 14.475 17.923
    endloop
  endfacet
  facet normal -1 0 0
    outer loop
      vertex 69 11.093 17.9179
      vertex 69 14.475 17.923
      vertex 69 11.093 17.3719
    endloop
  endfacet
  facet normal -1 0 0
    outer loop
      vertex 69 9.79519 19.2144
      vertex 69 14.475 17.923
      vertex 69 11.093 17.9179
    endloop
  endfacet
  facet normal -1 0 0
    outer loop
      vertex 69 9.79519 19.2144
      vertex 69 11.093 17.9179
      vertex 69 9.79519 17.9179
    endloop
  endfacet
  facet normal -1 0 0
    outer loop
      vertex 69 16.4758 17.923
      vertex 69 9.79519 19.2144
      vertex 69 58.7 20
    endloop
  endfacet
  facet normal -1 0 0
    outer loop
      vertex 69 2 20
      vertex 69 9.79519 19.2144
      vertex 69 9.24212 19.2144
    endloop
  endfacet
  facet normal -1 -0 0
    outer loop
      vertex 69 9.24212 16.0658
      vertex 69 5.1 11
      vertex 69 7.94436 17.3719
    endloop
  endfacet
  facet normal -1 0 0
    outer loop
      vertex 69 5.1 11
      vertex 69 7.60869 2.06855
      vertex 69 6.20983 3.62215
    endloop
  endfacet
  facet normal -1 0 0
    outer loop
      vertex 69 5.1 11
      vertex 69 6.20983 3.62215
      vertex 69 5.2 5.37122
    endloop
  endfacet
  facet normal -1 0 0
    outer loop
      vertex 69 5.1 11
      vertex 69 5.2 5.37122
      vertex 69 5.1 2
    endloop
  endfacet
  facet normal -1 0 0
    outer loop
      vertex 69 2 20
      vertex 69 7.94436 17.3719
      vertex 69 5.1 11
    endloop
  endfacet
  facet normal -1 0 0
    outer loop
      vertex 69 2 20
      vertex 69 5.1 11
      vertex 69 2 11
    endloop
  endfacet
  facet normal -1 0 0
    outer loop
      vertex 69 9.79519 19.2144
      vertex 69 2 20
      vertex 69 58.7 20
    endloop
  endfacet
  facet normal -1 0 0
    outer loop
      vertex 69 7.94436 17.9179
      vertex 69 2 20
      vertex 69 9.24212 19.2144
    endloop
  endfacet
  facet normal -1 0 0
    outer loop
      vertex 69 7.94436 17.3719
      vertex 69 2 20
      vertex 69 7.94436 17.9179
    endloop
  endfacet
  facet normal -1 0 0
    outer loop
      vertex 69 9.24212 17.9179
      vertex 69 7.94436 17.9179
      vertex 69 9.24212 19.2144
    endloop
  endfacet
  facet normal -1 0 0
    outer loop
      vertex 69 16.5 12
      vertex 69 14.475 17.3674
      vertex 69 16.4758 17.3674
    endloop
  endfacet
  facet normal -1 0 0
    outer loop
      vertex 69 14.475 17.3674
      vertex 69 11.093 17.3719
      vertex 69 14.475 17.923
    endloop
  endfacet
  facet normal -1 0 0
    outer loop
      vertex 69 9.79519 16.0658
      vertex 69 14.475 17.3674
      vertex 69 16.5 12
    endloop
  endfacet
  facet normal -1 -0 0
    outer loop
      vertex 69 14.475 17.3674
      vertex 69 9.79519 16.0658
      vertex 69 11.093 17.3719
    endloop
  endfacet
  facet normal -1 0 0
    outer loop
      vertex 69 9 12
      vertex 69 9.79519 16.0658
      vertex 69 16.5 12
    endloop
  endfacet
  facet normal -1 -0 0
    outer loop
      vertex 69 9.79519 16.0658
      vertex 69 9 12
      vertex 69 9.24212 16.0658
    endloop
  endfacet
  facet normal -1 0 0
    outer loop
      vertex 69 5.1 11
      vertex 69 9.24212 16.0658
      vertex 69 9 12
    endloop
  endfacet
  facet normal -1 0 0
    outer loop
      vertex 69 9.24212 16.0658
      vertex 69 7.94436 17.3719
      vertex 69 9.24212 17.3719
    endloop
  endfacet
  facet normal -1 0 0
    outer loop
      vertex 69 7.70305 2
      vertex 69 16.5 7.33061
      vertex 69 20.897 2
    endloop
  endfacet
  facet normal -1 0 0
    outer loop
      vertex 69 7.60869 2.06855
      vertex 69 9 7.33061
      vertex 69 7.70305 2
    endloop
  endfacet
  facet normal -1 0 0
    outer loop
      vertex 69 9 7.33061
      vertex 69 5.1 11
      vertex 69 9 12
    endloop
  endfacet
  facet normal -1 0 0
    outer loop
      vertex 69 5.1 11
      vertex 69 9 7.33061
      vertex 69 7.60869 2.06855
    endloop
  endfacet
  facet normal -1 -0 0
    outer loop
      vertex 69 16.5 7.33061
      vertex 69 7.70305 2
      vertex 69 9 7.33061
    endloop
  endfacet
  facet normal -1 -0 0
    outer loop
      vertex 69 11.093 17.3719
      vertex 69 9.79519 16.0658
      vertex 69 9.79519 17.3719
    endloop
  endfacet
  facet normal 0 -1 0
    outer loop
      vertex 66 5.2 2
      vertex 69 5.2 5.37122
      vertex 66 5.2 5.37122
    endloop
  endfacet
  facet normal 0 -1 -0
    outer loop
      vertex 69 5.2 5.37122
      vertex 66 5.2 2
      vertex 69 5.2 2
    endloop
  endfacet
  facet normal 0 1 -0
    outer loop
      vertex 69 23.2 2
      vertex 66 23.2 5.02481
      vertex 69 23.2 5.02481
    endloop
  endfacet
  facet normal 0 1 0
    outer loop
      vertex 66 23.2 5.02481
      vertex 69 23.2 2
      vertex 66 23.2 2
    endloop
  endfacet
  facet normal 0 -0.866025 0.500001
    outer loop
      vertex 66 22.3902 3.62215
      vertex 69 23.2 5.02481
      vertex 66 23.2 5.02481
    endloop
  endfacet
  facet normal 0 -0.866025 0.500001
    outer loop
      vertex 69 23.2 5.02481
      vertex 66 22.3902 3.62215
      vertex 69 22.3902 3.62215
    endloop
  endfacet
  facet normal 0 0.743145 0.669131
    outer loop
      vertex 69 7.60869 2.06855
      vertex 66 6.20983 3.62215
      vertex 69 6.20983 3.62215
    endloop
  endfacet
  facet normal 0 0.743145 0.669131
    outer loop
      vertex 66 6.20983 3.62215
      vertex 69 7.60869 2.06855
      vertex 66 7.60869 2.06855
    endloop
  endfacet
  facet normal 0 0.866026 0.5
    outer loop
      vertex 69 6.20983 3.62215
      vertex 66 5.2 5.37122
      vertex 69 5.2 5.37122
    endloop
  endfacet
  facet normal 0 0.866026 0.5
    outer loop
      vertex 66 5.2 5.37122
      vertex 69 6.20983 3.62215
      vertex 66 6.20983 3.62215
    endloop
  endfacet
  facet normal 0 -0.743145 0.66913
    outer loop
      vertex 66 20.9913 2.06855
      vertex 69 22.3902 3.62215
      vertex 66 22.3902 3.62215
    endloop
  endfacet
  facet normal 0 -0.743145 0.66913
    outer loop
      vertex 69 22.3902 3.62215
      vertex 66 20.9913 2.06855
      vertex 69 20.9913 2.06855
    endloop
  endfacet
  facet normal 0 -0.587784 0.809018
    outer loop
      vertex 66 20.9913 2.06855
      vertex 69 20.897 2
      vertex 69 20.9913 2.06855
    endloop
  endfacet
  facet normal 0 -0.587784 0.809018
    outer loop
      vertex 69 20.897 2
      vertex 66 20.9913 2.06855
      vertex 66 20.897 2
    endloop
  endfacet
  facet normal -0 0.587786 0.809016
    outer loop
      vertex 66 7.70305 2
      vertex 69 7.60869 2.06855
      vertex 69 7.70305 2
    endloop
  endfacet
  facet normal 0 0.587786 0.809016
    outer loop
      vertex 69 7.60869 2.06855
      vertex 66 7.70305 2
      vertex 66 7.60869 2.06855
    endloop
  endfacet
  facet normal -1 0 0
    outer loop
      vertex 69.5 7.94436 17.3719
      vertex 69.5 9.24212 17.9179
      vertex 69.5 9.24212 17.3719
    endloop
  endfacet
  facet normal -1 -0 0
    outer loop
      vertex 69.5 9.24212 17.9179
      vertex 69.5 7.94436 17.3719
      vertex 69.5 7.94436 17.9179
    endloop
  endfacet
  facet normal -1 0 0
    outer loop
      vertex 69.5 9.24212 17.3719
      vertex 69.5 9.79519 17.3719
      vertex 69.5 9.79519 16.0658
    endloop
  endfacet
  facet normal -1 0 0
    outer loop
      vertex 69.5 9.79519 17.3719
      vertex 69.5 9.24212 17.3719
      vertex 69.5 9.79519 17.9179
    endloop
  endfacet
  facet normal -1 0 0
    outer loop
      vertex 69.5 9.24212 17.3719
      vertex 69.5 9.79519 16.0658
      vertex 69.5 9.24212 16.0658
    endloop
  endfacet
  facet normal -1 0 0
    outer loop
      vertex 69.5 9.24212 17.9179
      vertex 69.5 9.79519 17.9179
      vertex 69.5 9.24212 17.3719
    endloop
  endfacet
  facet normal -1 0 0
    outer loop
      vertex 69.5 9.79519 17.9179
      vertex 69.5 9.24212 17.9179
      vertex 69.5 9.79519 19.2144
    endloop
  endfacet
  facet normal -1 -0 0
    outer loop
      vertex 69.5 9.79519 19.2144
      vertex 69.5 9.24212 17.9179
      vertex 69.5 9.24212 19.2144
    endloop
  endfacet
  facet normal -1 0 0
    outer loop
      vertex 69.5 9.79519 17.3719
      vertex 69.5 11.093 17.9179
      vertex 69.5 11.093 17.3719
    endloop
  endfacet
  facet normal -1 -0 0
    outer loop
      vertex 69.5 11.093 17.9179
      vertex 69.5 9.79519 17.3719
      vertex 69.5 9.79519 17.9179
    endloop
  endfacet
  facet normal -0 0 1
    outer loop
      vertex 69 9.24212 17.3719
      vertex 69.5 7.94436 17.3719
      vertex 69.5 9.24212 17.3719
    endloop
  endfacet
  facet normal 0 0 1
    outer loop
      vertex 69.5 7.94436 17.3719
      vertex 69 9.24212 17.3719
      vertex 69 7.94436 17.3719
    endloop
  endfacet
  facet normal 0 1 -0
    outer loop
      vertex 69.5 7.94436 17.3719
      vertex 69 7.94436 17.9179
      vertex 69.5 7.94436 17.9179
    endloop
  endfacet
  facet normal 0 1 0
    outer loop
      vertex 69 7.94436 17.9179
      vertex 69.5 7.94436 17.3719
      vertex 69 7.94436 17.3719
    endloop
  endfacet
  facet normal 0 0 -1
    outer loop
      vertex 69 7.94436 17.9179
      vertex 69.5 9.24212 17.9179
      vertex 69.5 7.94436 17.9179
    endloop
  endfacet
  facet normal -0 0 -1
    outer loop
      vertex 69.5 9.24212 17.9179
      vertex 69 7.94436 17.9179
      vertex 69 9.24212 17.9179
    endloop
  endfacet
  facet normal 0 1 -0
    outer loop
      vertex 69.5 9.24212 17.9179
      vertex 69 9.24212 19.2144
      vertex 69.5 9.24212 19.2144
    endloop
  endfacet
  facet normal 0 1 0
    outer loop
      vertex 69 9.24212 19.2144
      vertex 69.5 9.24212 17.9179
      vertex 69 9.24212 17.9179
    endloop
  endfacet
  facet normal 0 0 -1
    outer loop
      vertex 69 9.24212 19.2144
      vertex 69.5 9.79519 19.2144
      vertex 69.5 9.24212 19.2144
    endloop
  endfacet
  facet normal -0 0 -1
    outer loop
      vertex 69.5 9.79519 19.2144
      vertex 69 9.24212 19.2144
      vertex 69 9.79519 19.2144
    endloop
  endfacet
  facet normal 0 -1 0
    outer loop
      vertex 69 9.79519 17.9179
      vertex 69.5 9.79519 19.2144
      vertex 69 9.79519 19.2144
    endloop
  endfacet
  facet normal 0 -1 -0
    outer loop
      vertex 69.5 9.79519 19.2144
      vertex 69 9.79519 17.9179
      vertex 69.5 9.79519 17.9179
    endloop
  endfacet
  facet normal 0 0 -1
    outer loop
      vertex 69 9.79519 17.9179
      vertex 69.5 11.093 17.9179
      vertex 69.5 9.79519 17.9179
    endloop
  endfacet
  facet normal -0 0 -1
    outer loop
      vertex 69.5 11.093 17.9179
      vertex 69 9.79519 17.9179
      vertex 69 11.093 17.9179
    endloop
  endfacet
  facet normal 0 -1 0
    outer loop
      vertex 69 11.093 17.3719
      vertex 69.5 11.093 17.9179
      vertex 69 11.093 17.9179
    endloop
  endfacet
  facet normal 0 -1 -0
    outer loop
      vertex 69.5 11.093 17.9179
      vertex 69 11.093 17.3719
      vertex 69.5 11.093 17.3719
    endloop
  endfacet
  facet normal -0 0 1
    outer loop
      vertex 69 11.093 17.3719
      vertex 69.5 9.79519 17.3719
      vertex 69.5 11.093 17.3719
    endloop
  endfacet
  facet normal 0 0 1
    outer loop
      vertex 69.5 9.79519 17.3719
      vertex 69 11.093 17.3719
      vertex 69 9.79519 17.3719
    endloop
  endfacet
  facet normal 0 -1 0
    outer loop
      vertex 69 9.79519 16.0658
      vertex 69.5 9.79519 17.3719
      vertex 69 9.79519 17.3719
    endloop
  endfacet
  facet normal 0 -1 -0
    outer loop
      vertex 69.5 9.79519 17.3719
      vertex 69 9.79519 16.0658
      vertex 69.5 9.79519 16.0658
    endloop
  endfacet
  facet normal -0 0 1
    outer loop
      vertex 69 9.79519 16.0658
      vertex 69.5 9.24212 16.0658
      vertex 69.5 9.79519 16.0658
    endloop
  endfacet
  facet normal 0 0 1
    outer loop
      vertex 69.5 9.24212 16.0658
      vertex 69 9.79519 16.0658
      vertex 69 9.24212 16.0658
    endloop
  endfacet
  facet normal 0 1 -0
    outer loop
      vertex 69.5 9.24212 16.0658
      vertex 69 9.24212 17.3719
      vertex 69.5 9.24212 17.3719
    endloop
  endfacet
  facet normal 0 1 0
    outer loop
      vertex 69 9.24212 17.3719
      vertex 69.5 9.24212 16.0658
      vertex 69 9.24212 16.0658
    endloop
  endfacet
  facet normal -1 0 0
    outer loop
      vertex 69.5 14.475 17.3674
      vertex 69.5 16.4758 17.923
      vertex 69.5 16.4758 17.3674
    endloop
  endfacet
  facet normal -1 -0 0
    outer loop
      vertex 69.5 16.4758 17.923
      vertex 69.5 14.475 17.3674
      vertex 69.5 14.475 17.923
    endloop
  endfacet
  facet normal 0 1 -0
    outer loop
      vertex 69.5 14.475 17.3674
      vertex 69 14.475 17.923
      vertex 69.5 14.475 17.923
    endloop
  endfacet
  facet normal 0 1 0
    outer loop
      vertex 69 14.475 17.923
      vertex 69.5 14.475 17.3674
      vertex 69 14.475 17.3674
    endloop
  endfacet
  facet normal 0 0 -1
    outer loop
      vertex 69 14.475 17.923
      vertex 69.5 16.4758 17.923
      vertex 69.5 14.475 17.923
    endloop
  endfacet
  facet normal -0 0 -1
    outer loop
      vertex 69.5 16.4758 17.923
      vertex 69 14.475 17.923
      vertex 69 16.4758 17.923
    endloop
  endfacet
  facet normal -0 0 1
    outer loop
      vertex 69 16.4758 17.3674
      vertex 69.5 14.475 17.3674
      vertex 69.5 16.4758 17.3674
    endloop
  endfacet
  facet normal 0 0 1
    outer loop
      vertex 69.5 14.475 17.3674
      vertex 69 16.4758 17.3674
      vertex 69 14.475 17.3674
    endloop
  endfacet
  facet normal 0 -1 0
    outer loop
      vertex 69 16.4758 17.3674
      vertex 69.5 16.4758 17.923
      vertex 69 16.4758 17.923
    endloop
  endfacet
  facet normal 0 -1 -0
    outer loop
      vertex 69.5 16.4758 17.923
      vertex 69 16.4758 17.3674
      vertex 69.5 16.4758 17.3674
    endloop
  endfacet
  facet normal -1 0 0
    outer loop
      vertex 0 0 0
      vertex 0 60.7 20
      vertex 0 60.7 0
    endloop
  endfacet
  facet normal -1 -0 0
    outer loop
      vertex 0 60.7 20
      vertex 0 0 0
      vertex 0 0 20
    endloop
  endfacet
  facet normal 0 0 1
    outer loop
      vertex 71 60.7 20
      vertex 69 58.7 20
      vertex 71 0 20
    endloop
  endfacet
  facet normal 0 0 1
    outer loop
      vertex 71 60.7 20
      vertex 2 58.7 20
      vertex 69 58.7 20
    endloop
  endfacet
  facet normal 0 0 1
    outer loop
      vertex 2 58.7 20
      vertex 0 60.7 20
      vertex 2 2 20
    endloop
  endfacet
  facet normal -0 0 1
    outer loop
      vertex 0 60.7 20
      vertex 2 58.7 20
      vertex 71 60.7 20
    endloop
  endfacet
  facet normal -0 0 1
    outer loop
      vertex 69 2 20
      vertex 71 0 20
      vertex 69 58.7 20
    endloop
  endfacet
  facet normal -0 0 1
    outer loop
      vertex 2 2 20
      vertex 71 0 20
      vertex 69 2 20
    endloop
  endfacet
  facet normal 0 0 1
    outer loop
      vertex 2 2 20
      vertex 0 0 20
      vertex 71 0 20
    endloop
  endfacet
  facet normal 0 0 1
    outer loop
      vertex 0 0 20
      vertex 2 2 20
      vertex 0 60.7 20
    endloop
  endfacet
  facet normal 1 0 0
    outer loop
      vertex 71 25.8579 17.649
      vertex 71 25.2414 17.201
      vertex 71 25.8579 13.5
    endloop
  endfacet
  facet normal 1 -0 0
    outer loop
      vertex 71 33.5746 13.5
      vertex 71 34.3 12
      vertex 71 34.452 13.8134
    endloop
  endfacet
  facet normal 1 0 0
    outer loop
      vertex 71 32.4774 14.0499
      vertex 71 34.3 12
      vertex 71 33.5746 13.5
    endloop
  endfacet
  facet normal 1 0 0
    outer loop
      vertex 71 26.509 13.5
      vertex 71 32 16.2057
      vertex 71 26.509 18.825
    endloop
  endfacet
  facet normal 1 0 0
    outer loop
      vertex 71 32 16.2057
      vertex 71 26.509 13.5
      vertex 71 32.4774 14.0499
    endloop
  endfacet
  facet normal 1 0 0
    outer loop
      vertex 71 32.4774 14.0499
      vertex 71 26.509 13.5
      vertex 71 34.3 12
    endloop
  endfacet
  facet normal 1 0 0
    outer loop
      vertex 71 25 12
      vertex 71 26.509 13.5
      vertex 71 25.8579 13.5
    endloop
  endfacet
  facet normal 1 0 0
    outer loop
      vertex 71 26.509 13.5
      vertex 71 25 12
      vertex 71 34.3 12
    endloop
  endfacet
  facet normal 1 -0 0
    outer loop
      vertex 71 24.5556 16.8646
      vertex 71 25.8579 13.5
      vertex 71 25.2414 17.201
    endloop
  endfacet
  facet normal 1 0 0
    outer loop
      vertex 71 0 20
      vertex 71 25 12
      vertex 71 24.5556 16.8646
    endloop
  endfacet
  facet normal 1 0 0
    outer loop
      vertex 71 25.8579 13.5
      vertex 71 24.5556 16.8646
      vertex 71 25 12
    endloop
  endfacet
  facet normal 1 0 0
    outer loop
      vertex 71 34.9743 14.6991
      vertex 71 60.7 20
      vertex 71 35.1486 16.2057
    endloop
  endfacet
  facet normal 1 0 0
    outer loop
      vertex 71 60.7 20
      vertex 71 35.0403 17.4593
      vertex 71 35.1486 16.2057
    endloop
  endfacet
  facet normal 1 0 0
    outer loop
      vertex 71 60.7 20
      vertex 71 34.7404 18.2482
      vertex 71 35.0403 17.4593
    endloop
  endfacet
  facet normal 1 0 0
    outer loop
      vertex 71 60.7 20
      vertex 71 34.2565 18.7436
      vertex 71 34.7404 18.2482
    endloop
  endfacet
  facet normal 1 0 0
    outer loop
      vertex 71 60.7 20
      vertex 71 33.5746 18.9153
      vertex 71 34.2565 18.7436
    endloop
  endfacet
  facet normal 1 0 0
    outer loop
      vertex 71 32.1762 17.7201
      vertex 71 26.509 18.825
      vertex 71 32 16.2057
    endloop
  endfacet
  facet normal 1 0 0
    outer loop
      vertex 71 32.6998 18.6045
      vertex 71 26.509 18.825
      vertex 71 32.1762 17.7201
    endloop
  endfacet
  facet normal 1 0 0
    outer loop
      vertex 71 33.5746 18.9153
      vertex 71 26.509 18.825
      vertex 71 32.6998 18.6045
    endloop
  endfacet
  facet normal 1 -0 0
    outer loop
      vertex 71 0 20
      vertex 71 33.5746 18.9153
      vertex 71 60.7 20
    endloop
  endfacet
  facet normal 1 0 0
    outer loop
      vertex 71 33.5746 18.9153
      vertex 71 0 20
      vertex 71 26.509 18.825
    endloop
  endfacet
  facet normal 1 0 0
    outer loop
      vertex 71 26.0892 18.825
      vertex 71 24.5556 17.4939
      vertex 71 25.5105 18.1162
    endloop
  endfacet
  facet normal 1 0 0
    outer loop
      vertex 71 24.5556 17.4939
      vertex 71 0 20
      vertex 71 24.5556 16.8646
    endloop
  endfacet
  facet normal 1 0 0
    outer loop
      vertex 71 26.0892 18.825
      vertex 71 0 20
      vertex 71 24.5556 17.4939
    endloop
  endfacet
  facet normal 1 0 0
    outer loop
      vertex 71 26.509 18.825
      vertex 71 0 20
      vertex 71 26.0892 18.825
    endloop
  endfacet
  facet normal 1 0 0
    outer loop
      vertex 71 60.7 20
      vertex 71 34.9743 14.6991
      vertex 71 60.7 0
    endloop
  endfacet
  facet normal 1 0 0
    outer loop
      vertex 71 34.3 12
      vertex 71 34.9743 14.6991
      vertex 71 34.452 13.8134
    endloop
  endfacet
  facet normal 1 0 0
    outer loop
      vertex 71 34.9743 14.6991
      vertex 71 34.3 12
      vertex 71 60.7 0
    endloop
  endfacet
  facet normal 1 -0 0
    outer loop
      vertex 71 34.3 6.5
      vertex 71 60.7 0
      vertex 71 34.3 12
    endloop
  endfacet
  facet normal 1 0 0
    outer loop
      vertex 71 0 0
      vertex 71 34.3 6.5
      vertex 71 25 6.5
    endloop
  endfacet
  facet normal 1 0 0
    outer loop
      vertex 71 0 0
      vertex 71 25 12
      vertex 71 0 20
    endloop
  endfacet
  facet normal 1 0 0
    outer loop
      vertex 71 34.3 6.5
      vertex 71 0 0
      vertex 71 60.7 0
    endloop
  endfacet
  facet normal 1 0 0
    outer loop
      vertex 71 25 12
      vertex 71 0 0
      vertex 71 25 6.5
    endloop
  endfacet
  facet normal 1 0 0
    outer loop
      vertex 71 32.6095 16.2057
      vertex 71 34.5391 16.2057
      vertex 71 34.261 17.9457
    endloop
  endfacet
  facet normal 1 0 0
    outer loop
      vertex 71 34.5391 16.2057
      vertex 71 32.6095 16.2057
      vertex 71 34.261 14.4696
    endloop
  endfacet
  facet normal 1 -0 0
    outer loop
      vertex 71 32.9158 17.9963
      vertex 71 34.261 17.9457
      vertex 71 33.5676 18.3764
    endloop
  endfacet
  facet normal 1 0 0
    outer loop
      vertex 71 34.261 17.9457
      vertex 71 32.9158 17.9963
      vertex 71 32.6095 16.2057
    endloop
  endfacet
  facet normal 1 0 -0
    outer loop
      vertex 71 32.8876 14.4677
      vertex 71 34.261 14.4696
      vertex 71 32.6095 16.2057
    endloop
  endfacet
  facet normal 1 0 0
    outer loop
      vertex 71 34.261 14.4696
      vertex 71 32.8876 14.4677
      vertex 71 33.5746 14.0358
    endloop
  endfacet
  facet normal 0 0 -1
    outer loop
      vertex 0 0 0
      vertex 71 60.7 0
      vertex 71 0 0
    endloop
  endfacet
  facet normal -0 0 -1
    outer loop
      vertex 71 60.7 0
      vertex 0 0 0
      vertex 0 60.7 0
    endloop
  endfacet
  facet normal 0 -1 0
    outer loop
      vertex 0 0 0
      vertex 71 0 20
      vertex 0 0 20
    endloop
  endfacet
  facet normal 0 -1 -0
    outer loop
      vertex 71 0 20
      vertex 0 0 0
      vertex 71 0 0
    endloop
  endfacet
  facet normal 0 1 -0
    outer loop
      vertex 71 60.7 0
      vertex 0 60.7 20
      vertex 71 60.7 20
    endloop
  endfacet
  facet normal 0 1 0
    outer loop
      vertex 0 60.7 20
      vertex 71 60.7 0
      vertex 0 60.7 0
    endloop
  endfacet
  facet normal 1 0 0
    outer loop
      vertex 2 58.7 20
      vertex 2 55.6 15
      vertex 2 58.7 15
    endloop
  endfacet
  facet normal 1 0 0
    outer loop
      vertex 2 55.6 15
      vertex 2 5.1 15
      vertex 2 55.6 2
    endloop
  endfacet
  facet normal 1 0 0
    outer loop
      vertex 2 58.7 20
      vertex 2 5.1 15
      vertex 2 55.6 15
    endloop
  endfacet
  facet normal 1 -0 0
    outer loop
      vertex 2 2 20
      vertex 2 5.1 15
      vertex 2 58.7 20
    endloop
  endfacet
  facet normal 1 0 0
    outer loop
      vertex 2 5.1 15
      vertex 2 2 20
      vertex 2 4 15
    endloop
  endfacet
  facet normal 1 0 0
    outer loop
      vertex 2 2 13
      vertex 2 4 15
      vertex 2 2 20
    endloop
  endfacet
  facet normal 1 0 0
    outer loop
      vertex 2 4 15
      vertex 2 2 13
      vertex 2 4 13
    endloop
  endfacet
  facet normal 1 0 0
    outer loop
      vertex 2 55.6 2
      vertex 2 5.1 15
      vertex 2 5.1 2
    endloop
  endfacet
  facet normal 0 0 1
    outer loop
      vertex 69 58.7 15
      vertex 66 55.6 15
      vertex 69 55.6 15
    endloop
  endfacet
  facet normal 0 0 1
    outer loop
      vertex 65 5.1 15
      vertex 66 55.6 15
      vertex 65 55.6 15
    endloop
  endfacet
  facet normal -0 0 1
    outer loop
      vertex 63 57.7 15
      vertex 66 55.6 15
      vertex 69 58.7 15
    endloop
  endfacet
  facet normal 0 0 1
    outer loop
      vertex 66 55.6 15
      vertex 63 57.7 15
      vertex 65 55.6 15
    endloop
  endfacet
  facet normal 0 0 1
    outer loop
      vertex 69 58.7 15
      vertex 37 57.7 15
      vertex 63 57.7 15
    endloop
  endfacet
  facet normal 0 0 1
    outer loop
      vertex 37 57.7 15
      vertex 34 55.6 15
      vertex 37 56.6 15
    endloop
  endfacet
  facet normal 0 0 1
    outer loop
      vertex 34 55.6 15
      vertex 33 55.6 15
      vertex 34 5.1 15
    endloop
  endfacet
  facet normal -0 0 1
    outer loop
      vertex 31 57.7 15
      vertex 34 55.6 15
      vertex 37 57.7 15
    endloop
  endfacet
  facet normal 0 0 1
    outer loop
      vertex 34 55.6 15
      vertex 31 57.7 15
      vertex 33 55.6 15
    endloop
  endfacet
  facet normal 0 0 1
    outer loop
      vertex 69 58.7 15
      vertex 31 57.7 15
      vertex 37 57.7 15
    endloop
  endfacet
  facet normal -0 0 1
    outer loop
      vertex 2 58.7 15
      vertex 31 57.7 15
      vertex 69 58.7 15
    endloop
  endfacet
  facet normal 0 0 1
    outer loop
      vertex 5 57.7 15
      vertex 2 58.7 15
      vertex 5 56.6 15
    endloop
  endfacet
  facet normal 0 0 1
    outer loop
      vertex 31 57.7 15
      vertex 2 58.7 15
      vertex 5 57.7 15
    endloop
  endfacet
  facet normal 0 0 1
    outer loop
      vertex 66 55.6 15
      vertex 65 5.1 15
      vertex 66 4.1 15
    endloop
  endfacet
  facet normal 0 0 1
    outer loop
      vertex 62 4.1 15
      vertex 65 5.1 15
      vertex 62 5.1 15
    endloop
  endfacet
  facet normal 0 0 1
    outer loop
      vertex 65 5.1 15
      vertex 62 4.1 15
      vertex 66 4.1 15
    endloop
  endfacet
  facet normal -0 0 1
    outer loop
      vertex 63 56.6 15
      vertex 65 55.6 15
      vertex 63 57.7 15
    endloop
  endfacet
  facet normal 0 0 1
    outer loop
      vertex 62 55.6 15
      vertex 63 56.6 15
      vertex 62 56.6 15
    endloop
  endfacet
  facet normal 0 0 1
    outer loop
      vertex 63 56.6 15
      vertex 62 55.6 15
      vertex 65 55.6 15
    endloop
  endfacet
  facet normal -0 0 1
    outer loop
      vertex 37 56.6 15
      vertex 38 55.6 15
      vertex 38 56.6 15
    endloop
  endfacet
  facet normal 0 0 1
    outer loop
      vertex 38 55.6 15
      vertex 37 56.6 15
      vertex 34 55.6 15
    endloop
  endfacet
  facet normal -0 0 1
    outer loop
      vertex 34 5.1 15
      vertex 38 4.1 15
      vertex 38 5.1 15
    endloop
  endfacet
  facet normal 0 0 1
    outer loop
      vertex 33 5.1 15
      vertex 34 5.1 15
      vertex 33 55.6 15
    endloop
  endfacet
  facet normal 0 0 1
    outer loop
      vertex 30 4.1 15
      vertex 34 5.1 15
      vertex 33 5.1 15
    endloop
  endfacet
  facet normal 0 0 1
    outer loop
      vertex 30 4.1 15
      vertex 33 5.1 15
      vertex 30 5.1 15
    endloop
  endfacet
  facet normal 0 0 1
    outer loop
      vertex 34 5.1 15
      vertex 30 4.1 15
      vertex 38 4.1 15
    endloop
  endfacet
  facet normal -0 0 1
    outer loop
      vertex 31 56.6 15
      vertex 33 55.6 15
      vertex 31 57.7 15
    endloop
  endfacet
  facet normal 0 0 1
    outer loop
      vertex 30 55.6 15
      vertex 31 56.6 15
      vertex 30 56.6 15
    endloop
  endfacet
  facet normal 0 0 1
    outer loop
      vertex 31 56.6 15
      vertex 30 55.6 15
      vertex 33 55.6 15
    endloop
  endfacet
  facet normal -0 0 1
    outer loop
      vertex 5 56.6 15
      vertex 6 55.6 15
      vertex 6 56.6 15
    endloop
  endfacet
  facet normal 0 0 1
    outer loop
      vertex 2 55.6 15
      vertex 5 56.6 15
      vertex 2 58.7 15
    endloop
  endfacet
  facet normal 0 0 1
    outer loop
      vertex 5 56.6 15
      vertex 2 55.6 15
      vertex 6 55.6 15
    endloop
  endfacet
  facet normal 0 0 1
    outer loop
      vertex 6 5.1 15
      vertex 4 4.1 15
      vertex 6 4.1 15
    endloop
  endfacet
  facet normal -0 0 1
    outer loop
      vertex 2 5.1 15
      vertex 4 4.1 15
      vertex 6 5.1 15
    endloop
  endfacet
  facet normal 0 0 1
    outer loop
      vertex 2 4 15
      vertex 4 4.1 15
      vertex 2 5.1 15
    endloop
  endfacet
  facet normal 0 0 1
    outer loop
      vertex 4 4.1 15
      vertex 2 4 15
      vertex 4 4 15
    endloop
  endfacet
  facet normal -0 0 1
    outer loop
      vertex 14 5.1 15
      vertex 16 4.1 15
      vertex 17 5.1 15
    endloop
  endfacet
  facet normal 0 0 1
    outer loop
      vertex 16 4.1 15
      vertex 14 5.1 15
      vertex 14 4.1 15
    endloop
  endfacet
  facet normal 0 0 1
    outer loop
      vertex 22 56.6 15
      vertex 18 55.6 15
      vertex 22 55.6 15
    endloop
  endfacet
  facet normal 0 0 1
    outer loop
      vertex 18 55.6 15
      vertex 17 55.6 15
      vertex 18 5.1 15
    endloop
  endfacet
  facet normal -0 0 1
    outer loop
      vertex 14 56.6 15
      vertex 18 55.6 15
      vertex 22 56.6 15
    endloop
  endfacet
  facet normal 0 0 1
    outer loop
      vertex 18 55.6 15
      vertex 14 56.6 15
      vertex 17 55.6 15
    endloop
  endfacet
  facet normal 0 0 1
    outer loop
      vertex 17 55.6 15
      vertex 14 56.6 15
      vertex 14 55.6 15
    endloop
  endfacet
  facet normal 0 0 1
    outer loop
      vertex 22 5.1 15
      vertex 21 4.1 15
      vertex 22 4.1 15
    endloop
  endfacet
  facet normal -0 0 1
    outer loop
      vertex 18 5.1 15
      vertex 21 4.1 15
      vertex 22 5.1 15
    endloop
  endfacet
  facet normal 0 0 1
    outer loop
      vertex 18 5.1 15
      vertex 21 4 15
      vertex 21 4.1 15
    endloop
  endfacet
  facet normal 0 0 1
    outer loop
      vertex 17 5.1 15
      vertex 18 5.1 15
      vertex 17 55.6 15
    endloop
  endfacet
  facet normal 0 0 1
    outer loop
      vertex 16 4 15
      vertex 18 5.1 15
      vertex 17 5.1 15
    endloop
  endfacet
  facet normal 0 0 1
    outer loop
      vertex 16 4 15
      vertex 17 5.1 15
      vertex 16 4.1 15
    endloop
  endfacet
  facet normal 0 0 1
    outer loop
      vertex 18 5.1 15
      vertex 16 4 15
      vertex 21 4 15
    endloop
  endfacet
  facet normal -0 0 1
    outer loop
      vertex 46 5.1 15
      vertex 47 4.1 15
      vertex 49 5.1 15
    endloop
  endfacet
  facet normal 0 0 1
    outer loop
      vertex 47 4.1 15
      vertex 46 5.1 15
      vertex 46 4.1 15
    endloop
  endfacet
  facet normal 0 0 1
    outer loop
      vertex 54 56.6 15
      vertex 50 55.6 15
      vertex 54 55.6 15
    endloop
  endfacet
  facet normal 0 0 1
    outer loop
      vertex 50 55.6 15
      vertex 49 55.6 15
      vertex 50 5.1 15
    endloop
  endfacet
  facet normal -0 0 1
    outer loop
      vertex 46 56.6 15
      vertex 50 55.6 15
      vertex 54 56.6 15
    endloop
  endfacet
  facet normal 0 0 1
    outer loop
      vertex 50 55.6 15
      vertex 46 56.6 15
      vertex 49 55.6 15
    endloop
  endfacet
  facet normal 0 0 1
    outer loop
      vertex 49 55.6 15
      vertex 46 56.6 15
      vertex 46 55.6 15
    endloop
  endfacet
  facet normal 0 0 1
    outer loop
      vertex 54 5.1 15
      vertex 52 4.1 15
      vertex 54 4.1 15
    endloop
  endfacet
  facet normal -0 0 1
    outer loop
      vertex 50 5.1 15
      vertex 52 4.1 15
      vertex 54 5.1 15
    endloop
  endfacet
  facet normal 0 0 1
    outer loop
      vertex 50 5.1 15
      vertex 52 4 15
      vertex 52 4.1 15
    endloop
  endfacet
  facet normal 0 0 1
    outer loop
      vertex 49 5.1 15
      vertex 50 5.1 15
      vertex 49 55.6 15
    endloop
  endfacet
  facet normal -0 0 1
    outer loop
      vertex 49 5.1 15
      vertex 52 4 15
      vertex 50 5.1 15
    endloop
  endfacet
  facet normal 0 0 1
    outer loop
      vertex 47 4 15
      vertex 49 5.1 15
      vertex 47 4.1 15
    endloop
  endfacet
  facet normal 0 0 1
    outer loop
      vertex 49 5.1 15
      vertex 47 4 15
      vertex 52 4 15
    endloop
  endfacet
  facet normal 0 1 0
    outer loop
      vertex 69 2 20
      vertex 64 2 13
      vertex 2 2 20
    endloop
  endfacet
  facet normal 0 1 -0
    outer loop
      vertex 69 2 11
      vertex 64 2 13
      vertex 69 2 20
    endloop
  endfacet
  facet normal 0 1 0
    outer loop
      vertex 64 2 13
      vertex 69 2 11
      vertex 64 2 11
    endloop
  endfacet
  facet normal 0 1 0
    outer loop
      vertex 2 2 20
      vertex 64 2 13
      vertex 2 2 13
    endloop
  endfacet
  facet normal 0 -1 0
    outer loop
      vertex 2 58.7 15
      vertex 69 58.7 20
      vertex 2 58.7 20
    endloop
  endfacet
  facet normal 0 -1 -0
    outer loop
      vertex 69 58.7 20
      vertex 2 58.7 15
      vertex 69 58.7 15
    endloop
  endfacet
  facet normal 0 0 -1
    outer loop
      vertex 69 25 12
      vertex 71 34.3 12
      vertex 71 25 12
    endloop
  endfacet
  facet normal -0 0 -1
    outer loop
      vertex 71 34.3 12
      vertex 69 25 12
      vertex 69 34.3 12
    endloop
  endfacet
  facet normal 0 -1 0
    outer loop
      vertex 2 4 13
      vertex 4 4 15
      vertex 2 4 15
    endloop
  endfacet
  facet normal 0 -1 -0
    outer loop
      vertex 4 4 15
      vertex 2 4 13
      vertex 4 4 13
    endloop
  endfacet
  facet normal 0 -1 0
    outer loop
      vertex 16 4 13
      vertex 21 4 15
      vertex 16 4 15
    endloop
  endfacet
  facet normal 0 -1 -0
    outer loop
      vertex 21 4 15
      vertex 16 4 13
      vertex 21 4 13
    endloop
  endfacet
  facet normal 0 -1 0
    outer loop
      vertex 47 4 13
      vertex 52 4 15
      vertex 47 4 15
    endloop
  endfacet
  facet normal 0 -1 -0
    outer loop
      vertex 52 4 15
      vertex 47 4 13
      vertex 52 4 13
    endloop
  endfacet
  facet normal 0 0 1
    outer loop
      vertex 4 4 13
      vertex 2 4 13
      vertex 4 3 13
    endloop
  endfacet
  facet normal 0 0 1
    outer loop
      vertex 21 4 13
      vertex 16 4 13
      vertex 21 3 13
    endloop
  endfacet
  facet normal 0 0 1
    outer loop
      vertex 52 4 13
      vertex 47 4 13
      vertex 52 3 13
    endloop
  endfacet
  facet normal -0 0 1
    outer loop
      vertex 52 3 13
      vertex 64 2 13
      vertex 64 3 13
    endloop
  endfacet
  facet normal 0 0 1
    outer loop
      vertex 47 3 13
      vertex 52 3 13
      vertex 47 4 13
    endloop
  endfacet
  facet normal -0 0 1
    outer loop
      vertex 47 3 13
      vertex 64 2 13
      vertex 52 3 13
    endloop
  endfacet
  facet normal -0 0 1
    outer loop
      vertex 21 3 13
      vertex 64 2 13
      vertex 47 3 13
    endloop
  endfacet
  facet normal 0 0 1
    outer loop
      vertex 16 3 13
      vertex 21 3 13
      vertex 16 4 13
    endloop
  endfacet
  facet normal 0 0 1
    outer loop
      vertex 2 2 13
      vertex 21 3 13
      vertex 16 3 13
    endloop
  endfacet
  facet normal 0 0 1
    outer loop
      vertex 2 2 13
      vertex 16 3 13
      vertex 4 3 13
    endloop
  endfacet
  facet normal 0 0 1
    outer loop
      vertex 21 3 13
      vertex 2 2 13
      vertex 64 2 13
    endloop
  endfacet
  facet normal 0 0 1
    outer loop
      vertex 2 2 13
      vertex 4 3 13
      vertex 2 4 13
    endloop
  endfacet
  facet normal -1 0 0
    outer loop
      vertex 64 3 2
      vertex 64 4.1 11
      vertex 64 4.1 2
    endloop
  endfacet
  facet normal -1 -0 0
    outer loop
      vertex 64 4.1 11
      vertex 64 3 2
      vertex 64 3 11
    endloop
  endfacet
  facet normal 1 -0 0
    outer loop
      vertex 64 2 13
      vertex 64 3 11
      vertex 64 3 13
    endloop
  endfacet
  facet normal 1 0 0
    outer loop
      vertex 64 3 11
      vertex 64 2 13
      vertex 64 2 11
    endloop
  endfacet
  facet normal 0 -1 0
    outer loop
      vertex 62 4.1 15
      vertex 64 4.1 11
      vertex 66 4.1 15
    endloop
  endfacet
  facet normal 0 -1 0
    outer loop
      vertex 62 4.1 2
      vertex 64 4.1 11
      vertex 62 4.1 15
    endloop
  endfacet
  facet normal 0 -1 -0
    outer loop
      vertex 64 4.1 11
      vertex 62 4.1 2
      vertex 64 4.1 2
    endloop
  endfacet
  facet normal 0 -1 -0
    outer loop
      vertex 66 4.1 15
      vertex 64 4.1 11
      vertex 66 4.1 11
    endloop
  endfacet
  facet normal 0 -1 0
    outer loop
      vertex 52 4.1 2
      vertex 54 4.1 15
      vertex 52 4.1 15
    endloop
  endfacet
  facet normal 0 -1 -0
    outer loop
      vertex 54 4.1 15
      vertex 52 4.1 2
      vertex 54 4.1 2
    endloop
  endfacet
  facet normal 0 0 1
    outer loop
      vertex 66 4.1 11
      vertex 69 5.1 11
      vertex 66 5.1 11
    endloop
  endfacet
  facet normal 0 0 1
    outer loop
      vertex 69 5.1 11
      vertex 66 4.1 11
      vertex 69 2 11
    endloop
  endfacet
  facet normal 0 0 1
    outer loop
      vertex 64 3 11
      vertex 66 4.1 11
      vertex 64 4.1 11
    endloop
  endfacet
  facet normal 0 0 1
    outer loop
      vertex 64 2 11
      vertex 66 4.1 11
      vertex 64 3 11
    endloop
  endfacet
  facet normal 0 0 1
    outer loop
      vertex 66 4.1 11
      vertex 64 2 11
      vertex 69 2 11
    endloop
  endfacet
  facet normal -1 0 0
    outer loop
      vertex 17 5.1 2
      vertex 17 55.6 15
      vertex 17 55.6 2
    endloop
  endfacet
  facet normal -1 -0 0
    outer loop
      vertex 17 55.6 15
      vertex 17 5.1 2
      vertex 17 5.1 15
    endloop
  endfacet
  facet normal 0 -1 0
    outer loop
      vertex 14 55.6 2
      vertex 17 55.6 15
      vertex 14 55.6 15
    endloop
  endfacet
  facet normal 0 -1 -0
    outer loop
      vertex 17 55.6 15
      vertex 14 55.6 2
      vertex 17 55.6 2
    endloop
  endfacet
  facet normal 0 -1 0
    outer loop
      vertex 2 55.6 2
      vertex 6 55.6 15
      vertex 2 55.6 15
    endloop
  endfacet
  facet normal 0 -1 -0
    outer loop
      vertex 6 55.6 15
      vertex 2 55.6 2
      vertex 6 55.6 2
    endloop
  endfacet
  facet normal -0 0 1
    outer loop
      vertex 2 55.6 2
      vertex 6 5.1 2
      vertex 6 55.6 2
    endloop
  endfacet
  facet normal 0 0 1
    outer loop
      vertex 6 5.1 2
      vertex 2 55.6 2
      vertex 2 5.1 2
    endloop
  endfacet
  facet normal -0 0 1
    outer loop
      vertex 18 55.6 2
      vertex 22 5.1 2
      vertex 22 55.6 2
    endloop
  endfacet
  facet normal 0 0 1
    outer loop
      vertex 22 5.1 2
      vertex 18 55.6 2
      vertex 18 5.1 2
    endloop
  endfacet
  facet normal 0 0 1
    outer loop
      vertex 31 57.7 2
      vertex 30 56.6 2
      vertex 31 56.6 2
    endloop
  endfacet
  facet normal 0 0 1
    outer loop
      vertex 22 55.6 2
      vertex 30 55.6 2
      vertex 30 56.6 2
    endloop
  endfacet
  facet normal 0 0 1
    outer loop
      vertex 30 55.6 2
      vertex 22 55.6 2
      vertex 30 5.1 2
    endloop
  endfacet
  facet normal 0 0 1
    outer loop
      vertex 22 55.6 2
      vertex 30 56.6 2
      vertex 22 56.6 2
    endloop
  endfacet
  facet normal 0 0 1
    outer loop
      vertex 31 57.7 2
      vertex 22 56.6 2
      vertex 30 56.6 2
    endloop
  endfacet
  facet normal 0 0 1
    outer loop
      vertex 31 57.7 2
      vertex 14 56.6 2
      vertex 22 56.6 2
    endloop
  endfacet
  facet normal 0 0 1
    outer loop
      vertex 6 55.6 2
      vertex 14 55.6 2
      vertex 14 56.6 2
    endloop
  endfacet
  facet normal 0 0 1
    outer loop
      vertex 14 55.6 2
      vertex 6 55.6 2
      vertex 14 5.1 2
    endloop
  endfacet
  facet normal 0 0 1
    outer loop
      vertex 6 55.6 2
      vertex 14 56.6 2
      vertex 6 56.6 2
    endloop
  endfacet
  facet normal -0 0 1
    outer loop
      vertex 5 57.7 2
      vertex 14 56.6 2
      vertex 31 57.7 2
    endloop
  endfacet
  facet normal 0 0 1
    outer loop
      vertex 14 56.6 2
      vertex 5 57.7 2
      vertex 6 56.6 2
    endloop
  endfacet
  facet normal 0 0 1
    outer loop
      vertex 6 56.6 2
      vertex 5 57.7 2
      vertex 5 56.6 2
    endloop
  endfacet
  facet normal -0 0 1
    outer loop
      vertex 30 55.6 2
      vertex 33 5.1 2
      vertex 33 55.6 2
    endloop
  endfacet
  facet normal 0 0 1
    outer loop
      vertex 33 5.1 2
      vertex 30 55.6 2
      vertex 30 5.1 2
    endloop
  endfacet
  facet normal -0 0 1
    outer loop
      vertex 34 55.6 2
      vertex 38 5.1 2
      vertex 38 55.6 2
    endloop
  endfacet
  facet normal 0 0 1
    outer loop
      vertex 38 5.1 2
      vertex 34 55.6 2
      vertex 34 5.1 2
    endloop
  endfacet
  facet normal -0 0 1
    outer loop
      vertex 50 55.6 2
      vertex 54 5.1 2
      vertex 54 55.6 2
    endloop
  endfacet
  facet normal 0 0 1
    outer loop
      vertex 54 5.1 2
      vertex 50 55.6 2
      vertex 50 5.1 2
    endloop
  endfacet
  facet normal 0 0 1
    outer loop
      vertex 63 57.7 2
      vertex 62 56.6 2
      vertex 63 56.6 2
    endloop
  endfacet
  facet normal 0 0 1
    outer loop
      vertex 54 55.6 2
      vertex 62 55.6 2
      vertex 62 56.6 2
    endloop
  endfacet
  facet normal 0 0 1
    outer loop
      vertex 62 55.6 2
      vertex 54 55.6 2
      vertex 62 5.1 2
    endloop
  endfacet
  facet normal 0 0 1
    outer loop
      vertex 54 55.6 2
      vertex 62 56.6 2
      vertex 54 56.6 2
    endloop
  endfacet
  facet normal 0 0 1
    outer loop
      vertex 63 57.7 2
      vertex 54 56.6 2
      vertex 62 56.6 2
    endloop
  endfacet
  facet normal 0 0 1
    outer loop
      vertex 63 57.7 2
      vertex 46 56.6 2
      vertex 54 56.6 2
    endloop
  endfacet
  facet normal 0 0 1
    outer loop
      vertex 38 55.6 2
      vertex 46 55.6 2
      vertex 46 56.6 2
    endloop
  endfacet
  facet normal 0 0 1
    outer loop
      vertex 46 55.6 2
      vertex 38 55.6 2
      vertex 46 5.1 2
    endloop
  endfacet
  facet normal 0 0 1
    outer loop
      vertex 38 55.6 2
      vertex 46 56.6 2
      vertex 38 56.6 2
    endloop
  endfacet
  facet normal -0 0 1
    outer loop
      vertex 37 57.7 2
      vertex 46 56.6 2
      vertex 63 57.7 2
    endloop
  endfacet
  facet normal 0 0 1
    outer loop
      vertex 46 56.6 2
      vertex 37 57.7 2
      vertex 38 56.6 2
    endloop
  endfacet
  facet normal 0 0 1
    outer loop
      vertex 38 56.6 2
      vertex 37 57.7 2
      vertex 37 56.6 2
    endloop
  endfacet
  facet normal -0 0 1
    outer loop
      vertex 62 55.6 2
      vertex 65 23.2 2
      vertex 65 55.6 2
    endloop
  endfacet
  facet normal 0 0 1
    outer loop
      vertex 62 5.1 2
      vertex 65 23.2 2
      vertex 62 55.6 2
    endloop
  endfacet
  facet normal 0 0 1
    outer loop
      vertex 65 23.2 2
      vertex 62 5.1 2
      vertex 65 5.2 2
    endloop
  endfacet
  facet normal 0 0 1
    outer loop
      vertex 65 5.2 2
      vertex 62 5.1 2
      vertex 65 5.1 2
    endloop
  endfacet
  facet normal -0 0 1
    outer loop
      vertex 62 4.1 2
      vertex 64 3 2
      vertex 64 4.1 2
    endloop
  endfacet
  facet normal 0 0 1
    outer loop
      vertex 54 5.1 2
      vertex 62 5.1 2
      vertex 54 55.6 2
    endloop
  endfacet
  facet normal 0 0 1
    outer loop
      vertex 62 5.1 2
      vertex 54 5.1 2
      vertex 62 4.1 2
    endloop
  endfacet
  facet normal 0 0 1
    outer loop
      vertex 54 4.1 2
      vertex 62 4.1 2
      vertex 54 5.1 2
    endloop
  endfacet
  facet normal 0 0 1
    outer loop
      vertex 62 4.1 2
      vertex 54 4.1 2
      vertex 64 3 2
    endloop
  endfacet
  facet normal 0 0 1
    outer loop
      vertex 52 3 2
      vertex 54 4.1 2
      vertex 52 4.1 2
    endloop
  endfacet
  facet normal 0 0 1
    outer loop
      vertex 54 4.1 2
      vertex 52 3 2
      vertex 64 3 2
    endloop
  endfacet
  facet normal -0 0 1
    outer loop
      vertex 46 55.6 2
      vertex 49 5.1 2
      vertex 49 55.6 2
    endloop
  endfacet
  facet normal 0 0 1
    outer loop
      vertex 49 5.1 2
      vertex 46 55.6 2
      vertex 46 5.1 2
    endloop
  endfacet
  facet normal -0 0 1
    outer loop
      vertex 46 4.1 2
      vertex 47 3 2
      vertex 47 4.1 2
    endloop
  endfacet
  facet normal 0 0 1
    outer loop
      vertex 38 5.1 2
      vertex 46 5.1 2
      vertex 38 55.6 2
    endloop
  endfacet
  facet normal 0 0 1
    outer loop
      vertex 46 5.1 2
      vertex 38 5.1 2
      vertex 46 4.1 2
    endloop
  endfacet
  facet normal 0 0 1
    outer loop
      vertex 38 4.1 2
      vertex 46 4.1 2
      vertex 38 5.1 2
    endloop
  endfacet
  facet normal 0 0 1
    outer loop
      vertex 46 4.1 2
      vertex 38 4.1 2
      vertex 47 3 2
    endloop
  endfacet
  facet normal -0 0 1
    outer loop
      vertex 30 4.1 2
      vertex 47 3 2
      vertex 38 4.1 2
    endloop
  endfacet
  facet normal 0 0 1
    outer loop
      vertex 22 5.1 2
      vertex 30 5.1 2
      vertex 22 55.6 2
    endloop
  endfacet
  facet normal 0 0 1
    outer loop
      vertex 30 5.1 2
      vertex 22 5.1 2
      vertex 30 4.1 2
    endloop
  endfacet
  facet normal 0 0 1
    outer loop
      vertex 22 4.1 2
      vertex 30 4.1 2
      vertex 22 5.1 2
    endloop
  endfacet
  facet normal 0 0 1
    outer loop
      vertex 21 3 2
      vertex 30 4.1 2
      vertex 22 4.1 2
    endloop
  endfacet
  facet normal 0 0 1
    outer loop
      vertex 21 3 2
      vertex 22 4.1 2
      vertex 21 4.1 2
    endloop
  endfacet
  facet normal 0 0 1
    outer loop
      vertex 30 4.1 2
      vertex 21 3 2
      vertex 47 3 2
    endloop
  endfacet
  facet normal -0 0 1
    outer loop
      vertex 14 55.6 2
      vertex 17 5.1 2
      vertex 17 55.6 2
    endloop
  endfacet
  facet normal 0 0 1
    outer loop
      vertex 17 5.1 2
      vertex 14 55.6 2
      vertex 14 5.1 2
    endloop
  endfacet
  facet normal -0 0 1
    outer loop
      vertex 14 4.1 2
      vertex 16 3 2
      vertex 16 4.1 2
    endloop
  endfacet
  facet normal 0 0 1
    outer loop
      vertex 6 5.1 2
      vertex 14 5.1 2
      vertex 6 55.6 2
    endloop
  endfacet
  facet normal 0 0 1
    outer loop
      vertex 14 5.1 2
      vertex 6 5.1 2
      vertex 14 4.1 2
    endloop
  endfacet
  facet normal 0 0 1
    outer loop
      vertex 6 4.1 2
      vertex 14 4.1 2
      vertex 6 5.1 2
    endloop
  endfacet
  facet normal 0 0 1
    outer loop
      vertex 14 4.1 2
      vertex 6 4.1 2
      vertex 16 3 2
    endloop
  endfacet
  facet normal 0 0 1
    outer loop
      vertex 4 3 2
      vertex 6 4.1 2
      vertex 4 4.1 2
    endloop
  endfacet
  facet normal 0 0 1
    outer loop
      vertex 6 4.1 2
      vertex 4 3 2
      vertex 16 3 2
    endloop
  endfacet
  facet normal 0 1 -0
    outer loop
      vertex 6 5.1 2
      vertex 2 5.1 15
      vertex 6 5.1 15
    endloop
  endfacet
  facet normal 0 1 0
    outer loop
      vertex 2 5.1 15
      vertex 6 5.1 2
      vertex 2 5.1 2
    endloop
  endfacet
  facet normal 0 1 -0
    outer loop
      vertex 17 5.1 2
      vertex 14 5.1 15
      vertex 17 5.1 15
    endloop
  endfacet
  facet normal 0 1 0
    outer loop
      vertex 14 5.1 15
      vertex 17 5.1 2
      vertex 14 5.1 2
    endloop
  endfacet
  facet normal 1 -0 0
    outer loop
      vertex 6 4.1 15
      vertex 6 5.1 2
      vertex 6 5.1 15
    endloop
  endfacet
  facet normal 1 0 0
    outer loop
      vertex 6 5.1 2
      vertex 6 4.1 15
      vertex 6 4.1 2
    endloop
  endfacet
  facet normal 1 -0 0
    outer loop
      vertex 6 55.6 15
      vertex 6 56.6 2
      vertex 6 56.6 15
    endloop
  endfacet
  facet normal 1 0 0
    outer loop
      vertex 6 56.6 2
      vertex 6 55.6 15
      vertex 6 55.6 2
    endloop
  endfacet
  facet normal -1 0 0
    outer loop
      vertex 14 4.1 2
      vertex 14 5.1 15
      vertex 14 5.1 2
    endloop
  endfacet
  facet normal -1 -0 0
    outer loop
      vertex 14 5.1 15
      vertex 14 4.1 2
      vertex 14 4.1 15
    endloop
  endfacet
  facet normal -1 0 0
    outer loop
      vertex 14 55.6 2
      vertex 14 56.6 15
      vertex 14 56.6 2
    endloop
  endfacet
  facet normal -1 -0 0
    outer loop
      vertex 14 56.6 15
      vertex 14 55.6 2
      vertex 14 55.6 15
    endloop
  endfacet
  facet normal 0 1 -0
    outer loop
      vertex 16 3 2
      vertex 4 3 13
      vertex 16 3 13
    endloop
  endfacet
  facet normal 0 1 0
    outer loop
      vertex 4 3 13
      vertex 16 3 2
      vertex 4 3 2
    endloop
  endfacet
  facet normal 1 0 0
    outer loop
      vertex 4 4 13
      vertex 4 4.1 15
      vertex 4 4 15
    endloop
  endfacet
  facet normal 1 0 0
    outer loop
      vertex 4 4.1 15
      vertex 4 4 13
      vertex 4 4.1 2
    endloop
  endfacet
  facet normal 1 -0 0
    outer loop
      vertex 4 3 13
      vertex 4 4.1 2
      vertex 4 4 13
    endloop
  endfacet
  facet normal 1 0 0
    outer loop
      vertex 4 4.1 2
      vertex 4 3 13
      vertex 4 3 2
    endloop
  endfacet
  facet normal -1 0 0
    outer loop
      vertex 16 4.1 2
      vertex 16 4 13
      vertex 16 4.1 15
    endloop
  endfacet
  facet normal -1 0 0
    outer loop
      vertex 16 3 2
      vertex 16 4 13
      vertex 16 4.1 2
    endloop
  endfacet
  facet normal -1 -0 0
    outer loop
      vertex 16 4 13
      vertex 16 3 2
      vertex 16 3 13
    endloop
  endfacet
  facet normal -1 -0 0
    outer loop
      vertex 16 4.1 15
      vertex 16 4 13
      vertex 16 4 15
    endloop
  endfacet
  facet normal 0 -1 0
    outer loop
      vertex 14 4.1 2
      vertex 16 4.1 15
      vertex 14 4.1 15
    endloop
  endfacet
  facet normal 0 -1 -0
    outer loop
      vertex 16 4.1 15
      vertex 14 4.1 2
      vertex 16 4.1 2
    endloop
  endfacet
  facet normal 0 -1 0
    outer loop
      vertex 4 4.1 2
      vertex 6 4.1 15
      vertex 4 4.1 15
    endloop
  endfacet
  facet normal 0 -1 -0
    outer loop
      vertex 6 4.1 15
      vertex 4 4.1 2
      vertex 6 4.1 2
    endloop
  endfacet
  facet normal 1 -0 0
    outer loop
      vertex 5 56.6 15
      vertex 5 57.7 2
      vertex 5 57.7 15
    endloop
  endfacet
  facet normal 1 0 0
    outer loop
      vertex 5 57.7 2
      vertex 5 56.6 15
      vertex 5 56.6 2
    endloop
  endfacet
  facet normal 0 -1 0
    outer loop
      vertex 5 57.7 2
      vertex 31 57.7 15
      vertex 5 57.7 15
    endloop
  endfacet
  facet normal 0 -1 -0
    outer loop
      vertex 31 57.7 15
      vertex 5 57.7 2
      vertex 31 57.7 2
    endloop
  endfacet
  facet normal 0 1 -0
    outer loop
      vertex 6 56.6 2
      vertex 5 56.6 15
      vertex 6 56.6 15
    endloop
  endfacet
  facet normal 0 1 0
    outer loop
      vertex 5 56.6 15
      vertex 6 56.6 2
      vertex 5 56.6 2
    endloop
  endfacet
  facet normal 0 1 -0
    outer loop
      vertex 22 56.6 2
      vertex 14 56.6 15
      vertex 22 56.6 15
    endloop
  endfacet
  facet normal 0 1 0
    outer loop
      vertex 14 56.6 15
      vertex 22 56.6 2
      vertex 14 56.6 2
    endloop
  endfacet
  facet normal 0 1 -0
    outer loop
      vertex 31 56.6 2
      vertex 30 56.6 15
      vertex 31 56.6 15
    endloop
  endfacet
  facet normal 0 1 0
    outer loop
      vertex 30 56.6 15
      vertex 31 56.6 2
      vertex 30 56.6 2
    endloop
  endfacet
  facet normal 1 -0 0
    outer loop
      vertex 18 5.1 15
      vertex 18 55.6 2
      vertex 18 55.6 15
    endloop
  endfacet
  facet normal 1 0 0
    outer loop
      vertex 18 55.6 2
      vertex 18 5.1 15
      vertex 18 5.1 2
    endloop
  endfacet
  facet normal -1 0 0
    outer loop
      vertex 33 5.1 2
      vertex 33 55.6 15
      vertex 33 55.6 2
    endloop
  endfacet
  facet normal -1 -0 0
    outer loop
      vertex 33 55.6 15
      vertex 33 5.1 2
      vertex 33 5.1 15
    endloop
  endfacet
  facet normal 0 -1 0
    outer loop
      vertex 30 55.6 2
      vertex 33 55.6 15
      vertex 30 55.6 15
    endloop
  endfacet
  facet normal 0 -1 -0
    outer loop
      vertex 33 55.6 15
      vertex 30 55.6 2
      vertex 33 55.6 2
    endloop
  endfacet
  facet normal 0 -1 0
    outer loop
      vertex 18 55.6 2
      vertex 22 55.6 15
      vertex 18 55.6 15
    endloop
  endfacet
  facet normal 0 -1 -0
    outer loop
      vertex 22 55.6 15
      vertex 18 55.6 2
      vertex 22 55.6 2
    endloop
  endfacet
  facet normal 0 1 -0
    outer loop
      vertex 22 5.1 2
      vertex 18 5.1 15
      vertex 22 5.1 15
    endloop
  endfacet
  facet normal 0 1 0
    outer loop
      vertex 18 5.1 15
      vertex 22 5.1 2
      vertex 18 5.1 2
    endloop
  endfacet
  facet normal 0 1 -0
    outer loop
      vertex 33 5.1 2
      vertex 30 5.1 15
      vertex 33 5.1 15
    endloop
  endfacet
  facet normal 0 1 0
    outer loop
      vertex 30 5.1 15
      vertex 33 5.1 2
      vertex 30 5.1 2
    endloop
  endfacet
  facet normal 1 -0 0
    outer loop
      vertex 22 4.1 15
      vertex 22 5.1 2
      vertex 22 5.1 15
    endloop
  endfacet
  facet normal 1 0 0
    outer loop
      vertex 22 5.1 2
      vertex 22 4.1 15
      vertex 22 4.1 2
    endloop
  endfacet
  facet normal 1 -0 0
    outer loop
      vertex 22 55.6 15
      vertex 22 56.6 2
      vertex 22 56.6 15
    endloop
  endfacet
  facet normal 1 0 0
    outer loop
      vertex 22 56.6 2
      vertex 22 55.6 15
      vertex 22 55.6 2
    endloop
  endfacet
  facet normal -1 0 0
    outer loop
      vertex 30 4.1 2
      vertex 30 5.1 15
      vertex 30 5.1 2
    endloop
  endfacet
  facet normal -1 -0 0
    outer loop
      vertex 30 5.1 15
      vertex 30 4.1 2
      vertex 30 4.1 15
    endloop
  endfacet
  facet normal -1 0 0
    outer loop
      vertex 30 55.6 2
      vertex 30 56.6 15
      vertex 30 56.6 2
    endloop
  endfacet
  facet normal -1 -0 0
    outer loop
      vertex 30 56.6 15
      vertex 30 55.6 2
      vertex 30 55.6 15
    endloop
  endfacet
  facet normal 0 1 -0
    outer loop
      vertex 47 3 2
      vertex 21 3 13
      vertex 47 3 13
    endloop
  endfacet
  facet normal 0 1 0
    outer loop
      vertex 21 3 13
      vertex 47 3 2
      vertex 21 3 2
    endloop
  endfacet
  facet normal 1 0 0
    outer loop
      vertex 21 4 13
      vertex 21 4.1 15
      vertex 21 4 15
    endloop
  endfacet
  facet normal 1 0 0
    outer loop
      vertex 21 4.1 15
      vertex 21 4 13
      vertex 21 4.1 2
    endloop
  endfacet
  facet normal 1 -0 0
    outer loop
      vertex 21 3 13
      vertex 21 4.1 2
      vertex 21 4 13
    endloop
  endfacet
  facet normal 1 0 0
    outer loop
      vertex 21 4.1 2
      vertex 21 3 13
      vertex 21 3 2
    endloop
  endfacet
  facet normal 0 -1 0
    outer loop
      vertex 21 4.1 2
      vertex 22 4.1 15
      vertex 21 4.1 15
    endloop
  endfacet
  facet normal 0 -1 -0
    outer loop
      vertex 22 4.1 15
      vertex 21 4.1 2
      vertex 22 4.1 2
    endloop
  endfacet
  facet normal 0 -1 0
    outer loop
      vertex 30 4.1 2
      vertex 38 4.1 15
      vertex 30 4.1 15
    endloop
  endfacet
  facet normal 0 -1 -0
    outer loop
      vertex 38 4.1 15
      vertex 30 4.1 2
      vertex 38 4.1 2
    endloop
  endfacet
  facet normal 0 -1 0
    outer loop
      vertex 46 4.1 2
      vertex 47 4.1 15
      vertex 46 4.1 15
    endloop
  endfacet
  facet normal 0 -1 -0
    outer loop
      vertex 47 4.1 15
      vertex 46 4.1 2
      vertex 47 4.1 2
    endloop
  endfacet
  facet normal -1 0 0
    outer loop
      vertex 31 56.6 2
      vertex 31 57.7 15
      vertex 31 57.7 2
    endloop
  endfacet
  facet normal -1 -0 0
    outer loop
      vertex 31 57.7 15
      vertex 31 56.6 2
      vertex 31 56.6 15
    endloop
  endfacet
  facet normal 1 -0 0
    outer loop
      vertex 34 5.1 15
      vertex 34 55.6 2
      vertex 34 55.6 15
    endloop
  endfacet
  facet normal 1 0 0
    outer loop
      vertex 34 55.6 2
      vertex 34 5.1 15
      vertex 34 5.1 2
    endloop
  endfacet
  facet normal -1 0 0
    outer loop
      vertex 49 5.1 2
      vertex 49 55.6 15
      vertex 49 55.6 2
    endloop
  endfacet
  facet normal -1 -0 0
    outer loop
      vertex 49 55.6 15
      vertex 49 5.1 2
      vertex 49 5.1 15
    endloop
  endfacet
  facet normal 0 1 -0
    outer loop
      vertex 38 5.1 2
      vertex 34 5.1 15
      vertex 38 5.1 15
    endloop
  endfacet
  facet normal 0 1 0
    outer loop
      vertex 34 5.1 15
      vertex 38 5.1 2
      vertex 34 5.1 2
    endloop
  endfacet
  facet normal 0 1 -0
    outer loop
      vertex 49 5.1 2
      vertex 46 5.1 15
      vertex 49 5.1 15
    endloop
  endfacet
  facet normal 0 1 0
    outer loop
      vertex 46 5.1 15
      vertex 49 5.1 2
      vertex 46 5.1 2
    endloop
  endfacet
  facet normal 0 -1 0
    outer loop
      vertex 46 55.6 2
      vertex 49 55.6 15
      vertex 46 55.6 15
    endloop
  endfacet
  facet normal 0 -1 -0
    outer loop
      vertex 49 55.6 15
      vertex 46 55.6 2
      vertex 49 55.6 2
    endloop
  endfacet
  facet normal 0 -1 0
    outer loop
      vertex 34 55.6 2
      vertex 38 55.6 15
      vertex 34 55.6 15
    endloop
  endfacet
  facet normal 0 -1 -0
    outer loop
      vertex 38 55.6 15
      vertex 34 55.6 2
      vertex 38 55.6 2
    endloop
  endfacet
  facet normal 1 -0 0
    outer loop
      vertex 38 4.1 15
      vertex 38 5.1 2
      vertex 38 5.1 15
    endloop
  endfacet
  facet normal 1 0 0
    outer loop
      vertex 38 5.1 2
      vertex 38 4.1 15
      vertex 38 4.1 2
    endloop
  endfacet
  facet normal 1 -0 0
    outer loop
      vertex 38 55.6 15
      vertex 38 56.6 2
      vertex 38 56.6 15
    endloop
  endfacet
  facet normal 1 0 0
    outer loop
      vertex 38 56.6 2
      vertex 38 55.6 15
      vertex 38 55.6 2
    endloop
  endfacet
  facet normal -1 0 0
    outer loop
      vertex 46 4.1 2
      vertex 46 5.1 15
      vertex 46 5.1 2
    endloop
  endfacet
  facet normal -1 -0 0
    outer loop
      vertex 46 5.1 15
      vertex 46 4.1 2
      vertex 46 4.1 15
    endloop
  endfacet
  facet normal -1 0 0
    outer loop
      vertex 46 55.6 2
      vertex 46 56.6 15
      vertex 46 56.6 2
    endloop
  endfacet
  facet normal -1 -0 0
    outer loop
      vertex 46 56.6 15
      vertex 46 55.6 2
      vertex 46 55.6 15
    endloop
  endfacet
  facet normal -1 0 0
    outer loop
      vertex 47 4.1 2
      vertex 47 4 13
      vertex 47 4.1 15
    endloop
  endfacet
  facet normal -1 0 0
    outer loop
      vertex 47 3 2
      vertex 47 4 13
      vertex 47 4.1 2
    endloop
  endfacet
  facet normal -1 -0 0
    outer loop
      vertex 47 4 13
      vertex 47 3 2
      vertex 47 3 13
    endloop
  endfacet
  facet normal -1 -0 0
    outer loop
      vertex 47 4.1 15
      vertex 47 4 13
      vertex 47 4 15
    endloop
  endfacet
  facet normal 1 -0 0
    outer loop
      vertex 37 56.6 15
      vertex 37 57.7 2
      vertex 37 57.7 15
    endloop
  endfacet
  facet normal 1 0 0
    outer loop
      vertex 37 57.7 2
      vertex 37 56.6 15
      vertex 37 56.6 2
    endloop
  endfacet
  facet normal 0 1 -0
    outer loop
      vertex 38 56.6 2
      vertex 37 56.6 15
      vertex 38 56.6 15
    endloop
  endfacet
  facet normal 0 1 0
    outer loop
      vertex 37 56.6 15
      vertex 38 56.6 2
      vertex 37 56.6 2
    endloop
  endfacet
  facet normal 0 1 -0
    outer loop
      vertex 54 56.6 2
      vertex 46 56.6 15
      vertex 54 56.6 15
    endloop
  endfacet
  facet normal 0 1 0
    outer loop
      vertex 46 56.6 15
      vertex 54 56.6 2
      vertex 46 56.6 2
    endloop
  endfacet
  facet normal 0 1 -0
    outer loop
      vertex 63 56.6 2
      vertex 62 56.6 15
      vertex 63 56.6 15
    endloop
  endfacet
  facet normal 0 1 0
    outer loop
      vertex 62 56.6 15
      vertex 63 56.6 2
      vertex 62 56.6 2
    endloop
  endfacet
  facet normal 0 -1 0
    outer loop
      vertex 37 57.7 2
      vertex 63 57.7 15
      vertex 37 57.7 15
    endloop
  endfacet
  facet normal 0 -1 -0
    outer loop
      vertex 63 57.7 15
      vertex 37 57.7 2
      vertex 63 57.7 2
    endloop
  endfacet
  facet normal 1 -0 0
    outer loop
      vertex 50 5.1 15
      vertex 50 55.6 2
      vertex 50 55.6 15
    endloop
  endfacet
  facet normal 1 0 0
    outer loop
      vertex 50 55.6 2
      vertex 50 5.1 15
      vertex 50 5.1 2
    endloop
  endfacet
  facet normal 0 1 -0
    outer loop
      vertex 54 5.1 2
      vertex 50 5.1 15
      vertex 54 5.1 15
    endloop
  endfacet
  facet normal 0 1 0
    outer loop
      vertex 50 5.1 15
      vertex 54 5.1 2
      vertex 50 5.1 2
    endloop
  endfacet
  facet normal 0 1 -0
    outer loop
      vertex 65 5.1 2
      vertex 62 5.1 15
      vertex 65 5.1 15
    endloop
  endfacet
  facet normal 0 1 0
    outer loop
      vertex 62 5.1 15
      vertex 65 5.1 2
      vertex 62 5.1 2
    endloop
  endfacet
  facet normal 0 -1 0
    outer loop
      vertex 62 55.6 2
      vertex 65 55.6 15
      vertex 62 55.6 15
    endloop
  endfacet
  facet normal 0 -1 -0
    outer loop
      vertex 65 55.6 15
      vertex 62 55.6 2
      vertex 65 55.6 2
    endloop
  endfacet
  facet normal 0 -1 0
    outer loop
      vertex 50 55.6 2
      vertex 54 55.6 15
      vertex 50 55.6 15
    endloop
  endfacet
  facet normal 0 -1 -0
    outer loop
      vertex 54 55.6 15
      vertex 50 55.6 2
      vertex 54 55.6 2
    endloop
  endfacet
  facet normal 1 -0 0
    outer loop
      vertex 54 4.1 15
      vertex 54 5.1 2
      vertex 54 5.1 15
    endloop
  endfacet
  facet normal 1 0 0
    outer loop
      vertex 54 5.1 2
      vertex 54 4.1 15
      vertex 54 4.1 2
    endloop
  endfacet
  facet normal 1 -0 0
    outer loop
      vertex 54 55.6 15
      vertex 54 56.6 2
      vertex 54 56.6 15
    endloop
  endfacet
  facet normal 1 0 0
    outer loop
      vertex 54 56.6 2
      vertex 54 55.6 15
      vertex 54 55.6 2
    endloop
  endfacet
  facet normal -1 0 0
    outer loop
      vertex 62 4.1 2
      vertex 62 5.1 15
      vertex 62 5.1 2
    endloop
  endfacet
  facet normal -1 -0 0
    outer loop
      vertex 62 5.1 15
      vertex 62 4.1 2
      vertex 62 4.1 15
    endloop
  endfacet
  facet normal -1 0 0
    outer loop
      vertex 62 55.6 2
      vertex 62 56.6 15
      vertex 62 56.6 2
    endloop
  endfacet
  facet normal -1 -0 0
    outer loop
      vertex 62 56.6 15
      vertex 62 55.6 2
      vertex 62 55.6 15
    endloop
  endfacet
  facet normal 0 1 -0
    outer loop
      vertex 64 3 11
      vertex 52 3 13
      vertex 64 3 13
    endloop
  endfacet
  facet normal 0 1 0
    outer loop
      vertex 52 3 2
      vertex 64 3 11
      vertex 64 3 2
    endloop
  endfacet
  facet normal 0 1 0
    outer loop
      vertex 64 3 11
      vertex 52 3 2
      vertex 52 3 13
    endloop
  endfacet
  facet normal 1 0 0
    outer loop
      vertex 52 4 13
      vertex 52 4.1 15
      vertex 52 4 15
    endloop
  endfacet
  facet normal 1 0 0
    outer loop
      vertex 52 4.1 15
      vertex 52 4 13
      vertex 52 4.1 2
    endloop
  endfacet
  facet normal 1 -0 0
    outer loop
      vertex 52 3 13
      vertex 52 4.1 2
      vertex 52 4 13
    endloop
  endfacet
  facet normal 1 0 0
    outer loop
      vertex 52 4.1 2
      vertex 52 3 13
      vertex 52 3 2
    endloop
  endfacet
  facet normal -1 0 0
    outer loop
      vertex 63 56.6 2
      vertex 63 57.7 15
      vertex 63 57.7 2
    endloop
  endfacet
  facet normal -1 -0 0
    outer loop
      vertex 63 57.7 15
      vertex 63 56.6 2
      vertex 63 56.6 15
    endloop
  endfacet
  facet normal 0 1 -0
    outer loop
      vertex 69 5.1 2
      vertex 66 5.1 11
      vertex 69 5.1 11
    endloop
  endfacet
  facet normal 0 1 0
    outer loop
      vertex 66 5.1 11
      vertex 69 5.1 2
      vertex 66 5.1 2
    endloop
  endfacet
  facet normal 0 -1 0
    outer loop
      vertex 66 55.6 2
      vertex 69 55.6 15
      vertex 66 55.6 15
    endloop
  endfacet
  facet normal 0 -1 -0
    outer loop
      vertex 69 55.6 15
      vertex 66 55.6 2
      vertex 69 55.6 2
    endloop
  endfacet
  facet normal 0 0 1
    outer loop
      vertex 69 16.5 12
      vertex 68.8 15.3 12
      vertex 69 9 12
    endloop
  endfacet
  facet normal 0 0 1
    outer loop
      vertex 69 16.5 12
      vertex 66.3 15.3 12
      vertex 68.8 15.3 12
    endloop
  endfacet
  facet normal 0 0 1
    outer loop
      vertex 66 9 12
      vertex 66.3 15.3 12
      vertex 66 16.5 12
    endloop
  endfacet
  facet normal -0 0 1
    outer loop
      vertex 66 16.5 12
      vertex 66.3 15.3 12
      vertex 69 16.5 12
    endloop
  endfacet
  facet normal -0 0 1
    outer loop
      vertex 68.8 10.1 12
      vertex 69 9 12
      vertex 68.8 15.3 12
    endloop
  endfacet
  facet normal -0 0 1
    outer loop
      vertex 66.3 10.1 12
      vertex 69 9 12
      vertex 68.8 10.1 12
    endloop
  endfacet
  facet normal 0 0 1
    outer loop
      vertex 66.3 10.1 12
      vertex 66 9 12
      vertex 69 9 12
    endloop
  endfacet
  facet normal 0 0 1
    outer loop
      vertex 66.3 15.3 12
      vertex 66 9 12
      vertex 66.3 10.1 12
    endloop
  endfacet
  facet normal 0 -1 0
    outer loop
      vertex 66 9 12
      vertex 66.955 9 8.44986
      vertex 69 9 12
    endloop
  endfacet
  facet normal -0 -1 0
    outer loop
      vertex 66.955 9 8.44986
      vertex 66 9 12
      vertex 66 9 7.6883
    endloop
  endfacet
  facet normal 0 -1 0
    outer loop
      vertex 68.647 9 8.06366
      vertex 69 9 12
      vertex 66.955 9 8.44986
    endloop
  endfacet
  facet normal 0 -1 -0
    outer loop
      vertex 69 9 12
      vertex 68.647 9 8.06366
      vertex 69 9 7.33061
    endloop
  endfacet
  facet normal 0 1 0
    outer loop
      vertex 69 16.5 12
      vertex 66.955 16.5 8.44986
      vertex 66 16.5 12
    endloop
  endfacet
  facet normal 0 1 0
    outer loop
      vertex 69 16.5 12
      vertex 68.647 16.5 8.06366
      vertex 66.955 16.5 8.44986
    endloop
  endfacet
  facet normal -0 1 0
    outer loop
      vertex 68.647 16.5 8.06366
      vertex 69 16.5 12
      vertex 69 16.5 7.33061
    endloop
  endfacet
  facet normal 0 1 0
    outer loop
      vertex 66 16.5 12
      vertex 66.955 16.5 8.44986
      vertex 66 16.5 7.6883
    endloop
  endfacet
  facet normal 1 -0 0
    outer loop
      vertex 66.3 10.1 12
      vertex 66.3 15.3 7.92754
      vertex 66.3 15.3 12
    endloop
  endfacet
  facet normal 1 0 0
    outer loop
      vertex 66.3 15.3 7.92754
      vertex 66.3 10.1 12
      vertex 66.3 10.1 7.92754
    endloop
  endfacet
  facet normal -1 0 0
    outer loop
      vertex 68.8 10.1 7.74591
      vertex 68.8 15.3 12
      vertex 68.8 15.3 7.74591
    endloop
  endfacet
  facet normal -1 -0 0
    outer loop
      vertex 68.8 15.3 12
      vertex 68.8 10.1 7.74591
      vertex 68.8 10.1 12
    endloop
  endfacet
  facet normal 0 1 0
    outer loop
      vertex 68.8 10.1 12
      vertex 66.955 10.1 8.44986
      vertex 66.3 10.1 12
    endloop
  endfacet
  facet normal 0 1 0
    outer loop
      vertex 68.8 10.1 12
      vertex 68.647 10.1 8.06366
      vertex 66.955 10.1 8.44986
    endloop
  endfacet
  facet normal -0 1 0
    outer loop
      vertex 68.647 10.1 8.06366
      vertex 68.8 10.1 12
      vertex 68.8 10.1 7.74591
    endloop
  endfacet
  facet normal 0 1 0
    outer loop
      vertex 66.3 10.1 12
      vertex 66.955 10.1 8.44986
      vertex 66.3 10.1 7.92754
    endloop
  endfacet
  facet normal 0 -1 0
    outer loop
      vertex 66.3 15.3 12
      vertex 66.955 15.3 8.44986
      vertex 68.8 15.3 12
    endloop
  endfacet
  facet normal -0 -1 0
    outer loop
      vertex 66.955 15.3 8.44986
      vertex 66.3 15.3 12
      vertex 66.3 15.3 7.92754
    endloop
  endfacet
  facet normal 0 -1 0
    outer loop
      vertex 68.647 15.3 8.06366
      vertex 68.8 15.3 12
      vertex 66.955 15.3 8.44986
    endloop
  endfacet
  facet normal 0 -1 -0
    outer loop
      vertex 68.8 15.3 12
      vertex 68.647 15.3 8.06366
      vertex 68.8 15.3 7.74591
    endloop
  endfacet
  facet normal -0.900969 -2.51126e-06 -0.433883
    outer loop
      vertex 69 16.5 7.33061
      vertex 68.8 15.3 7.74591
      vertex 68.647 16.5 8.06366
    endloop
  endfacet
  facet normal -0.900972 0 -0.433877
    outer loop
      vertex 69 9 7.33061
      vertex 68.8 15.3 7.74591
      vertex 69 16.5 7.33061
    endloop
  endfacet
  facet normal -0.900972 -0 -0.433877
    outer loop
      vertex 68.8 15.3 7.74591
      vertex 69 9 7.33061
      vertex 68.8 10.1 7.74591
    endloop
  endfacet
  facet normal -0.900969 2.73956e-06 -0.433883
    outer loop
      vertex 68.647 9 8.06366
      vertex 68.8 10.1 7.74591
      vertex 69 9 7.33061
    endloop
  endfacet
  facet normal -0.900966 0 -0.43389
    outer loop
      vertex 68.8 10.1 7.74591
      vertex 68.647 9 8.06366
      vertex 68.647 10.1 8.06366
    endloop
  endfacet
  facet normal -0.900966 -0 -0.43389
    outer loop
      vertex 68.647 16.5 8.06366
      vertex 68.8 15.3 7.74591
      vertex 68.647 15.3 8.06366
    endloop
  endfacet
  facet normal -0.222521 0 -0.974928
    outer loop
      vertex 66.955 9 8.44986
      vertex 68.647 10.1 8.06366
      vertex 68.647 9 8.06366
    endloop
  endfacet
  facet normal -0.222521 0 -0.974928
    outer loop
      vertex 68.647 10.1 8.06366
      vertex 66.955 9 8.44986
      vertex 66.955 10.1 8.44986
    endloop
  endfacet
  facet normal -0.222521 0 -0.974928
    outer loop
      vertex 66.955 15.3 8.44986
      vertex 68.647 16.5 8.06366
      vertex 68.647 15.3 8.06366
    endloop
  endfacet
  facet normal -0.222521 0 -0.974928
    outer loop
      vertex 68.647 16.5 8.06366
      vertex 66.955 15.3 8.44986
      vertex 66.955 16.5 8.44986
    endloop
  endfacet
  facet normal 0.623493 0 -0.781829
    outer loop
      vertex 66.955 9 8.44986
      vertex 66.3 10.1 7.92754
      vertex 66.955 10.1 8.44986
    endloop
  endfacet
  facet normal 0.623485 0 -0.781836
    outer loop
      vertex 66.3 10.1 7.92754
      vertex 66 9 7.6883
      vertex 66.3 15.3 7.92754
    endloop
  endfacet
  facet normal 0.62349 -2.64309e-06 -0.781831
    outer loop
      vertex 66 9 7.6883
      vertex 66.3 10.1 7.92754
      vertex 66.955 9 8.44986
    endloop
  endfacet
  facet normal 0.623493 0 -0.781829
    outer loop
      vertex 66.3 15.3 7.92754
      vertex 66.955 16.5 8.44986
      vertex 66.955 15.3 8.44986
    endloop
  endfacet
  facet normal 0.62349 2.42283e-06 -0.781831
    outer loop
      vertex 66.3 15.3 7.92754
      vertex 66 16.5 7.6883
      vertex 66.955 16.5 8.44986
    endloop
  endfacet
  facet normal 0.623485 0 -0.781836
    outer loop
      vertex 66 16.5 7.6883
      vertex 66.3 15.3 7.92754
      vertex 66 9 7.6883
    endloop
  endfacet
endsolid OpenSCAD_Model
