solid OpenSCAD_Model
  facet normal -1 0 0
    outer loop
      vertex 2 58 1
      vertex 2 54 6.5
      vertex 2 58 21
    endloop
  endfacet
  facet normal -1 0 0
    outer loop
      vertex 2 58 1
      vertex 2 49 6.5
      vertex 2 54 6.5
    endloop
  endfacet
  facet normal -1 -0 0
    outer loop
      vertex 2 49 6.5
      vertex 2 2 1
      vertex 2 49 15.5
    endloop
  endfacet
  facet normal -1 0 0
    outer loop
      vertex 2 2 1
      vertex 2 49 6.5
      vertex 2 58 1
    endloop
  endfacet
  facet normal -1 0 0
    outer loop
      vertex 2 54 15.5
      vertex 2 58 21
      vertex 2 54 6.5
    endloop
  endfacet
  facet normal -1 0 0
    outer loop
      vertex 2 49 15.5
      vertex 2 58 21
      vertex 2 54 15.5
    endloop
  endfacet
  facet normal -1 0 0
    outer loop
      vertex 2 2 21
      vertex 2 49 15.5
      vertex 2 2 1
    endloop
  endfacet
  facet normal -1 0 0
    outer loop
      vertex 2 49 15.5
      vertex 2 2 21
      vertex 2 58 21
    endloop
  endfacet
  facet normal 0 0 1
    outer loop
      vertex 69 58 21
      vertex 68 57 21
      vertex 69 2 21
    endloop
  endfacet
  facet normal 0 0 1
    outer loop
      vertex 69 58 21
      vertex 3 57 21
      vertex 68 57 21
    endloop
  endfacet
  facet normal 0 0 1
    outer loop
      vertex 3 57 21
      vertex 2 58 21
      vertex 3 3 21
    endloop
  endfacet
  facet normal -0 0 1
    outer loop
      vertex 2 58 21
      vertex 3 57 21
      vertex 69 58 21
    endloop
  endfacet
  facet normal -0 0 1
    outer loop
      vertex 68 3 21
      vertex 69 2 21
      vertex 68 57 21
    endloop
  endfacet
  facet normal -0 0 1
    outer loop
      vertex 3 3 21
      vertex 69 2 21
      vertex 68 3 21
    endloop
  endfacet
  facet normal 0 0 1
    outer loop
      vertex 3 3 21
      vertex 2 2 21
      vertex 69 2 21
    endloop
  endfacet
  facet normal 0 0 1
    outer loop
      vertex 2 2 21
      vertex 3 3 21
      vertex 2 58 21
    endloop
  endfacet
  facet normal 1 -0 0
    outer loop
      vertex 69 2 21
      vertex 69 58 1
      vertex 69 58 21
    endloop
  endfacet
  facet normal 1 0 0
    outer loop
      vertex 69 58 1
      vertex 69 2 21
      vertex 69 2 1
    endloop
  endfacet
  facet normal 0 0 1
    outer loop
      vertex 7 21 1
      vertex 3 21 1
      vertex 7 14 1
    endloop
  endfacet
  facet normal 0 0 1
    outer loop
      vertex 39 46 1
      vertex 45 56 1
      vertex 45 57 1
    endloop
  endfacet
  facet normal 0 0 1
    outer loop
      vertex 45 56 1
      vertex 39 46 1
      vertex 45 53 1
    endloop
  endfacet
  facet normal 0 0 1
    outer loop
      vertex 45 53 1
      vertex 39 46 1
      vertex 45 50 1
    endloop
  endfacet
  facet normal -0 0 1
    outer loop
      vertex 3 57 1
      vertex 39 46 1
      vertex 45 57 1
    endloop
  endfacet
  facet normal 0 0 1
    outer loop
      vertex 39 46 1
      vertex 3 57 1
      vertex 7 46 1
    endloop
  endfacet
  facet normal 0 0 1
    outer loop
      vertex 3 39 1
      vertex 7 46 1
      vertex 3 57 1
    endloop
  endfacet
  facet normal 0 0 1
    outer loop
      vertex 7 46 1
      vertex 3 39 1
      vertex 7 39 1
    endloop
  endfacet
  facet normal -0 0 1
    outer loop
      vertex 45 56 1
      vertex 47 53 1
      vertex 47 56 1
    endloop
  endfacet
  facet normal 0 0 1
    outer loop
      vertex 47 53 1
      vertex 45 56 1
      vertex 45 53 1
    endloop
  endfacet
  facet normal -0 0 1
    outer loop
      vertex 49 57 1
      vertex 52 56 1
      vertex 52 57 1
    endloop
  endfacet
  facet normal 0 0 1
    outer loop
      vertex 52 56 1
      vertex 49 50 1
      vertex 52 50 1
    endloop
  endfacet
  facet normal 0 -0 1
    outer loop
      vertex 50 48.8 1
      vertex 52 50 1
      vertex 49 50 1
    endloop
  endfacet
  facet normal 0 0 1
    outer loop
      vertex 49 50 1
      vertex 50 46.8 1
      vertex 50 48.8 1
    endloop
  endfacet
  facet normal 0 0 1
    outer loop
      vertex 50 46.8 1
      vertex 39 46 1
      vertex 50 13.5 1
    endloop
  endfacet
  facet normal 0 0 1
    outer loop
      vertex 52 50 1
      vertex 50 48.8 1
      vertex 52 49 1
    endloop
  endfacet
  facet normal 0 0 1
    outer loop
      vertex 52 56 1
      vertex 49 57 1
      vertex 49 50 1
    endloop
  endfacet
  facet normal -0 0 1
    outer loop
      vertex 52 49 1
      vertex 68 48.8 1
      vertex 68 49 1
    endloop
  endfacet
  facet normal 0 0 1
    outer loop
      vertex 68 48.8 1
      vertex 52 49 1
      vertex 50 48.8 1
    endloop
  endfacet
  facet normal -0 0 1
    outer loop
      vertex 50 46.8 1
      vertex 68 13.5 1
      vertex 68 46.8 1
    endloop
  endfacet
  facet normal 0 0 1
    outer loop
      vertex 68 13.5 1
      vertex 50 46.8 1
      vertex 50 13.5 1
    endloop
  endfacet
  facet normal 0 0 1
    outer loop
      vertex 68 11.5 1
      vertex 52 11 1
      vertex 68 11 1
    endloop
  endfacet
  facet normal 0 0 1
    outer loop
      vertex 50 11.5 1
      vertex 52 10 1
      vertex 52 11 1
    endloop
  endfacet
  facet normal 0 0 1
    outer loop
      vertex 52 10 1
      vertex 50 11.5 1
      vertex 52 4 1
    endloop
  endfacet
  facet normal -0 0 1
    outer loop
      vertex 50 11.5 1
      vertex 52 11 1
      vertex 68 11.5 1
    endloop
  endfacet
  facet normal 0 0 1
    outer loop
      vertex 39 14 1
      vertex 52 4 1
      vertex 50 11.5 1
    endloop
  endfacet
  facet normal 0 0 1
    outer loop
      vertex 50 46.8 1
      vertex 49 50 1
      vertex 45 50 1
    endloop
  endfacet
  facet normal 0 0 1
    outer loop
      vertex 50 46.8 1
      vertex 45 50 1
      vertex 39 46 1
    endloop
  endfacet
  facet normal -0 0 1
    outer loop
      vertex 39 14 1
      vertex 50 13.5 1
      vertex 39 46 1
    endloop
  endfacet
  facet normal 0 0 1
    outer loop
      vertex 50 13.5 1
      vertex 39 14 1
      vertex 50 11.5 1
    endloop
  endfacet
  facet normal 0 0 1
    outer loop
      vertex 52 4 1
      vertex 39 14 1
      vertex 52 3 1
    endloop
  endfacet
  facet normal 0 0 1
    outer loop
      vertex 3 3 1
      vertex 39 14 1
      vertex 7 14 1
    endloop
  endfacet
  facet normal 0 0 1
    outer loop
      vertex 39 14 1
      vertex 3 3 1
      vertex 52 3 1
    endloop
  endfacet
  facet normal 0 0 1
    outer loop
      vertex 3 3 1
      vertex 7 14 1
      vertex 3 21 1
    endloop
  endfacet
  facet normal 0 0 1
    outer loop
      vertex 69.5 58.5 1
      vertex 69 58 1
      vertex 69.5 1.5 1
    endloop
  endfacet
  facet normal 0 0 1
    outer loop
      vertex 69.5 58.5 1
      vertex 2 58 1
      vertex 69 58 1
    endloop
  endfacet
  facet normal 0 0 1
    outer loop
      vertex 2 58 1
      vertex 1.5 58.5 1
      vertex 2 2 1
    endloop
  endfacet
  facet normal -0 0 1
    outer loop
      vertex 1.5 58.5 1
      vertex 2 58 1
      vertex 69.5 58.5 1
    endloop
  endfacet
  facet normal -0 0 1
    outer loop
      vertex 69 2 1
      vertex 69.5 1.5 1
      vertex 69 58 1
    endloop
  endfacet
  facet normal -0 0 1
    outer loop
      vertex 2 2 1
      vertex 69.5 1.5 1
      vertex 69 2 1
    endloop
  endfacet
  facet normal 0 0 1
    outer loop
      vertex 2 2 1
      vertex 1.5 1.5 1
      vertex 69.5 1.5 1
    endloop
  endfacet
  facet normal 0 0 1
    outer loop
      vertex 1.5 1.5 1
      vertex 2 2 1
      vertex 1.5 58.5 1
    endloop
  endfacet
  facet normal 0 -1 0
    outer loop
      vertex 2 2 1
      vertex 69 2 21
      vertex 2 2 21
    endloop
  endfacet
  facet normal 0 -1 -0
    outer loop
      vertex 69 2 21
      vertex 2 2 1
      vertex 69 2 1
    endloop
  endfacet
  facet normal 0 1 -0
    outer loop
      vertex 69 58 1
      vertex 2 58 21
      vertex 69 58 21
    endloop
  endfacet
  facet normal 0 1 0
    outer loop
      vertex 2 58 21
      vertex 69 58 1
      vertex 2 58 1
    endloop
  endfacet
  facet normal 1 0 0
    outer loop
      vertex 3 57 21
      vertex 3 54 15.5
      vertex 3 57 1
    endloop
  endfacet
  facet normal 1 0 0
    outer loop
      vertex 3 57 21
      vertex 3 49 15.5
      vertex 3 54 15.5
    endloop
  endfacet
  facet normal 1 0 0
    outer loop
      vertex 3 49 15.5
      vertex 3 39 9
      vertex 3 49 6.5
    endloop
  endfacet
  facet normal 1 -0 0
    outer loop
      vertex 3 3 21
      vertex 3 49 15.5
      vertex 3 57 21
    endloop
  endfacet
  facet normal 1 0 0
    outer loop
      vertex 3 49 15.5
      vertex 3 37 9
      vertex 3 39 9
    endloop
  endfacet
  facet normal 1 0 0
    outer loop
      vertex 3 37 9
      vertex 3 23 9
      vertex 3 37 3.5
    endloop
  endfacet
  facet normal 1 0 0
    outer loop
      vertex 3 49 15.5
      vertex 3 23 9
      vertex 3 37 9
    endloop
  endfacet
  facet normal 1 0 0
    outer loop
      vertex 3 49 15.5
      vertex 3 3 21
      vertex 3 23 9
    endloop
  endfacet
  facet normal 1 0 0
    outer loop
      vertex 3 23 9
      vertex 3 3 21
      vertex 3 21 9
    endloop
  endfacet
  facet normal 1 0 0
    outer loop
      vertex 3 3 1
      vertex 3 21 9
      vertex 3 3 21
    endloop
  endfacet
  facet normal 1 0 0
    outer loop
      vertex 3 21 9
      vertex 3 3 1
      vertex 3 21 1
    endloop
  endfacet
  facet normal 1 -0 0
    outer loop
      vertex 3 54 6.5
      vertex 3 57 1
      vertex 3 54 15.5
    endloop
  endfacet
  facet normal 1 -0 0
    outer loop
      vertex 3 49 6.5
      vertex 3 57 1
      vertex 3 54 6.5
    endloop
  endfacet
  facet normal 1 0 0
    outer loop
      vertex 3 39 1
      vertex 3 49 6.5
      vertex 3 39 9
    endloop
  endfacet
  facet normal 1 0 0
    outer loop
      vertex 3 49 6.5
      vertex 3 39 1
      vertex 3 57 1
    endloop
  endfacet
  facet normal 1 0 0
    outer loop
      vertex 3 37 3.5
      vertex 3 23 9
      vertex 3 23 3.5
    endloop
  endfacet
  facet normal -1 0 0
    outer loop
      vertex 68 46.8 1
      vertex 68 13.5 1
      vertex 68 46.8 10
    endloop
  endfacet
  facet normal -1 0 0
    outer loop
      vertex 68 46.8 10
      vertex 68 57 21
      vertex 68 57 10
    endloop
  endfacet
  facet normal -1 0 0
    outer loop
      vertex 68 13.5 10
      vertex 68 46.8 10
      vertex 68 13.5 1
    endloop
  endfacet
  facet normal -1 0 0
    outer loop
      vertex 68 46.8 10
      vertex 68 13.5 10
      vertex 68 57 21
    endloop
  endfacet
  facet normal -1 0 0
    outer loop
      vertex 68 3 21
      vertex 68 13.5 10
      vertex 68 3 10
    endloop
  endfacet
  facet normal -1 0 0
    outer loop
      vertex 68 13.5 10
      vertex 68 3 21
      vertex 68 57 21
    endloop
  endfacet
  facet normal -1 0 0
    outer loop
      vertex 68 49 1
      vertex 68 57 0
      vertex 68 49 0
    endloop
  endfacet
  facet normal -1 0 0
    outer loop
      vertex 68 57 0
      vertex 68 49 1
      vertex 68 57 4
    endloop
  endfacet
  facet normal -1 0 0
    outer loop
      vertex 68 48.8 4
      vertex 68 49 1
      vertex 68 48.8 1
    endloop
  endfacet
  facet normal -1 0 0
    outer loop
      vertex 68 49 1
      vertex 68 48.8 4
      vertex 68 57 4
    endloop
  endfacet
  facet normal -1 0 0
    outer loop
      vertex 68 11 0
      vertex 68 3 0
      vertex 68 11 1
    endloop
  endfacet
  facet normal -1 0 0
    outer loop
      vertex 68 11 1
      vertex 68 11.5 4
      vertex 68 11.5 1
    endloop
  endfacet
  facet normal -1 0 0
    outer loop
      vertex 68 3 4
      vertex 68 11 1
      vertex 68 3 0
    endloop
  endfacet
  facet normal -1 0 0
    outer loop
      vertex 68 11 1
      vertex 68 3 4
      vertex 68 11.5 4
    endloop
  endfacet
  facet normal 0 1 0
    outer loop
      vertex 68 3 4
      vertex 52 3 1
      vertex 50 3 4
    endloop
  endfacet
  facet normal 0 1 -0
    outer loop
      vertex 68 3 0
      vertex 52 3 1
      vertex 68 3 4
    endloop
  endfacet
  facet normal 0 1 0
    outer loop
      vertex 52 3 1
      vertex 68 3 0
      vertex 52 3 0
    endloop
  endfacet
  facet normal 0 1 0
    outer loop
      vertex 50 3 10
      vertex 68 3 21
      vertex 68 3 10
    endloop
  endfacet
  facet normal 0 1 0
    outer loop
      vertex 68 3 21
      vertex 50 3 10
      vertex 3 3 21
    endloop
  endfacet
  facet normal 0 1 0
    outer loop
      vertex 3 3 1
      vertex 50 3 10
      vertex 50 3 4
    endloop
  endfacet
  facet normal 0 1 0
    outer loop
      vertex 3 3 1
      vertex 50 3 4
      vertex 52 3 1
    endloop
  endfacet
  facet normal 0 1 0
    outer loop
      vertex 50 3 10
      vertex 3 3 1
      vertex 3 3 21
    endloop
  endfacet
  facet normal 0 -1 0
    outer loop
      vertex 49 57 13
      vertex 50 57 4
      vertex 50 57 10
    endloop
  endfacet
  facet normal 0 -1 0
    outer loop
      vertex 49 57 1
      vertex 50 57 4
      vertex 49 57 13
    endloop
  endfacet
  facet normal 0 -1 0
    outer loop
      vertex 52 57 1
      vertex 50 57 4
      vertex 49 57 1
    endloop
  endfacet
  facet normal 0 -1 0
    outer loop
      vertex 50 57 4
      vertex 52 57 1
      vertex 68 57 4
    endloop
  endfacet
  facet normal 0 -1 0
    outer loop
      vertex 68 57 0
      vertex 52 57 1
      vertex 52 57 0
    endloop
  endfacet
  facet normal 0 -1 0
    outer loop
      vertex 52 57 1
      vertex 68 57 0
      vertex 68 57 4
    endloop
  endfacet
  facet normal 0 -1 0
    outer loop
      vertex 3 57 21
      vertex 45 57 13
      vertex 68 57 21
    endloop
  endfacet
  facet normal 0 -1 0
    outer loop
      vertex 3 57 1
      vertex 45 57 13
      vertex 3 57 21
    endloop
  endfacet
  facet normal 0 -1 -0
    outer loop
      vertex 45 57 13
      vertex 3 57 1
      vertex 45 57 1
    endloop
  endfacet
  facet normal 0 -1 0
    outer loop
      vertex 49 57 13
      vertex 68 57 21
      vertex 45 57 13
    endloop
  endfacet
  facet normal 0 -1 0
    outer loop
      vertex 68 57 10
      vertex 49 57 13
      vertex 50 57 10
    endloop
  endfacet
  facet normal 0 -1 0
    outer loop
      vertex 49 57 13
      vertex 68 57 10
      vertex 68 57 21
    endloop
  endfacet
  facet normal 0 0 -1
    outer loop
      vertex 2 49 15.5
      vertex 3 54 15.5
      vertex 3 49 15.5
    endloop
  endfacet
  facet normal -0 0 -1
    outer loop
      vertex 3 54 15.5
      vertex 2 49 15.5
      vertex 2 54 15.5
    endloop
  endfacet
  facet normal -0 0 1
    outer loop
      vertex 2 54 6.5
      vertex 3 49 6.5
      vertex 3 54 6.5
    endloop
  endfacet
  facet normal 0 0 1
    outer loop
      vertex 3 49 6.5
      vertex 2 54 6.5
      vertex 2 49 6.5
    endloop
  endfacet
  facet normal 0 1 -0
    outer loop
      vertex 3 49 6.5
      vertex 2 49 15.5
      vertex 3 49 15.5
    endloop
  endfacet
  facet normal 0 1 0
    outer loop
      vertex 2 49 15.5
      vertex 3 49 6.5
      vertex 2 49 6.5
    endloop
  endfacet
  facet normal 0 -1 0
    outer loop
      vertex 2 54 6.5
      vertex 3 54 15.5
      vertex 2 54 15.5
    endloop
  endfacet
  facet normal 0 -1 -0
    outer loop
      vertex 3 54 15.5
      vertex 2 54 6.5
      vertex 3 54 6.5
    endloop
  endfacet
  facet normal -0 0 1
    outer loop
      vertex 3 23 9
      vertex 7 21 9
      vertex 7 23 9
    endloop
  endfacet
  facet normal 0 0 1
    outer loop
      vertex 7 21 9
      vertex 3 23 9
      vertex 3 21 9
    endloop
  endfacet
  facet normal -0 0 1
    outer loop
      vertex 3 39 9
      vertex 7 37 9
      vertex 7 39 9
    endloop
  endfacet
  facet normal 0 0 1
    outer loop
      vertex 7 37 9
      vertex 3 39 9
      vertex 3 37 9
    endloop
  endfacet
  facet normal 1 0 0
    outer loop
      vertex 7 23 9
      vertex 7 21 9
      vertex 7 23 3.5
    endloop
  endfacet
  facet normal 1 0 0
    outer loop
      vertex 7 37 3.5
      vertex 7 39 9
      vertex 7 37 9
    endloop
  endfacet
  facet normal 1 0 0
    outer loop
      vertex 7 39 9
      vertex 7 37 3.5
      vertex 7 39 1
    endloop
  endfacet
  facet normal 1 -0 0
    outer loop
      vertex 7 23 3.5
      vertex 7 39 1
      vertex 7 37 3.5
    endloop
  endfacet
  facet normal 1 0 0
    outer loop
      vertex 7 23 3.5
      vertex 7 21 1
      vertex 7 39 1
    endloop
  endfacet
  facet normal 1 0 0
    outer loop
      vertex 7 21 1
      vertex 7 23 3.5
      vertex 7 21 9
    endloop
  endfacet
  facet normal 0 -1 0
    outer loop
      vertex 3 21 1
      vertex 7 21 9
      vertex 3 21 9
    endloop
  endfacet
  facet normal 0 -1 -0
    outer loop
      vertex 7 21 9
      vertex 3 21 1
      vertex 7 21 1
    endloop
  endfacet
  facet normal 0 1 -0
    outer loop
      vertex 7 39 1
      vertex 3 39 9
      vertex 7 39 9
    endloop
  endfacet
  facet normal 0 1 0
    outer loop
      vertex 3 39 9
      vertex 7 39 1
      vertex 3 39 1
    endloop
  endfacet
  facet normal -0 0 1
    outer loop
      vertex 3 37 3.5
      vertex 7 23 3.5
      vertex 7 37 3.5
    endloop
  endfacet
  facet normal 0 0 1
    outer loop
      vertex 7 23 3.5
      vertex 3 37 3.5
      vertex 3 23 3.5
    endloop
  endfacet
  facet normal 0 1 -0
    outer loop
      vertex 7 23 3.5
      vertex 3 23 9
      vertex 7 23 9
    endloop
  endfacet
  facet normal 0 1 0
    outer loop
      vertex 3 23 9
      vertex 7 23 3.5
      vertex 3 23 3.5
    endloop
  endfacet
  facet normal 0 -1 0
    outer loop
      vertex 3 37 3.5
      vertex 7 37 9
      vertex 3 37 9
    endloop
  endfacet
  facet normal 0 -1 -0
    outer loop
      vertex 7 37 9
      vertex 3 37 3.5
      vertex 7 37 3.5
    endloop
  endfacet
  facet normal -1 0 0
    outer loop
      vertex 45 50 1
      vertex 45 53 13
      vertex 45 53 1
    endloop
  endfacet
  facet normal -1 -0 0
    outer loop
      vertex 45 53 13
      vertex 45 50 1
      vertex 45 50 13
    endloop
  endfacet
  facet normal -1 0 0
    outer loop
      vertex 45 56 1
      vertex 45 57 13
      vertex 45 57 1
    endloop
  endfacet
  facet normal -1 -0 0
    outer loop
      vertex 45 57 13
      vertex 45 56 1
      vertex 45 56 13
    endloop
  endfacet
  facet normal 0 0 1
    outer loop
      vertex 47 53 13
      vertex 49 57 13
      vertex 47 56 13
    endloop
  endfacet
  facet normal -0 0 1
    outer loop
      vertex 45 57 13
      vertex 47 56 13
      vertex 49 57 13
    endloop
  endfacet
  facet normal 0 0 1
    outer loop
      vertex 47 56 13
      vertex 45 57 13
      vertex 45 56 13
    endloop
  endfacet
  facet normal 0 0 1
    outer loop
      vertex 49 57 13
      vertex 47 53 13
      vertex 49 50 13
    endloop
  endfacet
  facet normal 0 0 1
    outer loop
      vertex 45 50 13
      vertex 47 53 13
      vertex 45 53 13
    endloop
  endfacet
  facet normal 0 0 1
    outer loop
      vertex 47 53 13
      vertex 45 50 13
      vertex 49 50 13
    endloop
  endfacet
  facet normal 1 -0 0
    outer loop
      vertex 49 50 13
      vertex 49 57 1
      vertex 49 57 13
    endloop
  endfacet
  facet normal 1 0 0
    outer loop
      vertex 49 57 1
      vertex 49 50 13
      vertex 49 50 1
    endloop
  endfacet
  facet normal 0 -1 0
    outer loop
      vertex 45 50 1
      vertex 49 50 13
      vertex 45 50 13
    endloop
  endfacet
  facet normal 0 -1 -0
    outer loop
      vertex 49 50 13
      vertex 45 50 1
      vertex 49 50 1
    endloop
  endfacet
  facet normal -1 0 0
    outer loop
      vertex 47 53 1
      vertex 47 56 13
      vertex 47 56 1
    endloop
  endfacet
  facet normal -1 -0 0
    outer loop
      vertex 47 56 13
      vertex 47 53 1
      vertex 47 53 13
    endloop
  endfacet
  facet normal 0 -1 0
    outer loop
      vertex 45 56 1
      vertex 47 56 13
      vertex 45 56 13
    endloop
  endfacet
  facet normal 0 -1 -0
    outer loop
      vertex 47 56 13
      vertex 45 56 1
      vertex 47 56 1
    endloop
  endfacet
  facet normal 0 1 -0
    outer loop
      vertex 47 53 1
      vertex 45 53 13
      vertex 47 53 13
    endloop
  endfacet
  facet normal 0 1 0
    outer loop
      vertex 45 53 13
      vertex 47 53 1
      vertex 45 53 1
    endloop
  endfacet
  facet normal -1 0 0
    outer loop
      vertex 0 60 0
      vertex 0 54 6.5
      vertex 0 60 15
    endloop
  endfacet
  facet normal -1 0 0
    outer loop
      vertex 0 60 0
      vertex 0 49 6.5
      vertex 0 54 6.5
    endloop
  endfacet
  facet normal -1 0 0
    outer loop
      vertex 0 0 0
      vertex 0 49 6.5
      vertex 0 60 0
    endloop
  endfacet
  facet normal -1 0 0
    outer loop
      vertex 0 0 15
      vertex 0 49 6.5
      vertex 0 0 0
    endloop
  endfacet
  facet normal -1 0 0
    outer loop
      vertex 0 49 6.5
      vertex 0 0 15
      vertex 0 49 15
    endloop
  endfacet
  facet normal -1 -0 0
    outer loop
      vertex 0 60 15
      vertex 0 54 6.5
      vertex 0 54 15
    endloop
  endfacet
  facet normal 0 0 1
    outer loop
      vertex 1.5 49 15
      vertex 0 49 15
      vertex 1.5 1.5 15
    endloop
  endfacet
  facet normal 0 0 1
    outer loop
      vertex 71 60 15
      vertex 69.5 58.5 15
      vertex 71 0 15
    endloop
  endfacet
  facet normal 0 0 1
    outer loop
      vertex 71 60 15
      vertex 1.5 58.5 15
      vertex 69.5 58.5 15
    endloop
  endfacet
  facet normal -0 0 1
    outer loop
      vertex 0 60 15
      vertex 1.5 58.5 15
      vertex 71 60 15
    endloop
  endfacet
  facet normal 0 0 1
    outer loop
      vertex 0 54 15
      vertex 1.5 58.5 15
      vertex 0 60 15
    endloop
  endfacet
  facet normal 0 0 1
    outer loop
      vertex 1.5 58.5 15
      vertex 0 54 15
      vertex 1.5 54 15
    endloop
  endfacet
  facet normal -0 0 1
    outer loop
      vertex 69.5 1.5 15
      vertex 71 0 15
      vertex 69.5 58.5 15
    endloop
  endfacet
  facet normal -0 0 1
    outer loop
      vertex 1.5 1.5 15
      vertex 71 0 15
      vertex 69.5 1.5 15
    endloop
  endfacet
  facet normal 0 0 1
    outer loop
      vertex 1.5 1.5 15
      vertex 0 0 15
      vertex 71 0 15
    endloop
  endfacet
  facet normal 0 0 1
    outer loop
      vertex 0 0 15
      vertex 1.5 1.5 15
      vertex 0 49 15
    endloop
  endfacet
  facet normal 1 -0 0
    outer loop
      vertex 71 0 15
      vertex 71 60 0
      vertex 71 60 15
    endloop
  endfacet
  facet normal 1 0 0
    outer loop
      vertex 71 60 0
      vertex 71 0 15
      vertex 71 0 0
    endloop
  endfacet
  facet normal 0 1 -0
    outer loop
      vertex 71 60 0
      vertex 0 60 15
      vertex 71 60 15
    endloop
  endfacet
  facet normal 0 1 0
    outer loop
      vertex 0 60 15
      vertex 71 60 0
      vertex 0 60 0
    endloop
  endfacet
  facet normal 0 0 -1
    outer loop
      vertex 52 11 0
      vertex 68 49 0
      vertex 68 11 0
    endloop
  endfacet
  facet normal -0 0 -1
    outer loop
      vertex 68 49 0
      vertex 52 11 0
      vertex 52 49 0
    endloop
  endfacet
  facet normal 0 0 -1
    outer loop
      vertex 68 11 0
      vertex 71 0 0
      vertex 68 3 0
    endloop
  endfacet
  facet normal 0 0 -1
    outer loop
      vertex 71 0 0
      vertex 52 3 0
      vertex 68 3 0
    endloop
  endfacet
  facet normal 0 0 -1
    outer loop
      vertex 39 14 0
      vertex 52 4 0
      vertex 52 3 0
    endloop
  endfacet
  facet normal 0 0 -1
    outer loop
      vertex 52 4 0
      vertex 39 14 0
      vertex 52 10 0
    endloop
  endfacet
  facet normal 0 0 -1
    outer loop
      vertex 52 10 0
      vertex 39 14 0
      vertex 52 11 0
    endloop
  endfacet
  facet normal 0 0 -1
    outer loop
      vertex 52 11 0
      vertex 39 14 0
      vertex 52 49 0
    endloop
  endfacet
  facet normal 0 0 -1
    outer loop
      vertex 39 46 0
      vertex 52 49 0
      vertex 39 14 0
    endloop
  endfacet
  facet normal -0 0 -1
    outer loop
      vertex 52 49 0
      vertex 39 46 0
      vertex 52 50 0
    endloop
  endfacet
  facet normal -0 0 -1
    outer loop
      vertex 52 50 0
      vertex 39 46 0
      vertex 52 56 0
    endloop
  endfacet
  facet normal 0 0 -1
    outer loop
      vertex 0 0 0
      vertex 39 14 0
      vertex 52 3 0
    endloop
  endfacet
  facet normal -0 0 -1
    outer loop
      vertex 7 14 0
      vertex 0 0 0
      vertex 7 46 0
    endloop
  endfacet
  facet normal -0 0 -1
    outer loop
      vertex 39 14 0
      vertex 0 0 0
      vertex 7 14 0
    endloop
  endfacet
  facet normal 0 0 -1
    outer loop
      vertex 0 0 0
      vertex 52 3 0
      vertex 71 0 0
    endloop
  endfacet
  facet normal 0 0 -1
    outer loop
      vertex 71 0 0
      vertex 68 11 0
      vertex 71 60 0
    endloop
  endfacet
  facet normal 0 0 -1
    outer loop
      vertex 68 49 0
      vertex 71 60 0
      vertex 68 11 0
    endloop
  endfacet
  facet normal 0 0 -1
    outer loop
      vertex 68 57 0
      vertex 71 60 0
      vertex 68 49 0
    endloop
  endfacet
  facet normal 0 0 -1
    outer loop
      vertex 52 57 0
      vertex 71 60 0
      vertex 68 57 0
    endloop
  endfacet
  facet normal -0 0 -1
    outer loop
      vertex 52 56 0
      vertex 39 46 0
      vertex 52 57 0
    endloop
  endfacet
  facet normal 0 0 -1
    outer loop
      vertex 0 60 0
      vertex 39 46 0
      vertex 7 46 0
    endloop
  endfacet
  facet normal 0 0 -1
    outer loop
      vertex 52 57 0
      vertex 0 60 0
      vertex 71 60 0
    endloop
  endfacet
  facet normal 0 0 -1
    outer loop
      vertex 39 46 0
      vertex 0 60 0
      vertex 52 57 0
    endloop
  endfacet
  facet normal 0 0 -1
    outer loop
      vertex 0 60 0
      vertex 7 46 0
      vertex 0 0 0
    endloop
  endfacet
  facet normal 0 0 -1
    outer loop
      vertex 52 4 0
      vertex 67 10 0
      vertex 67 4 0
    endloop
  endfacet
  facet normal -0 0 -1
    outer loop
      vertex 67 10 0
      vertex 52 4 0
      vertex 52 10 0
    endloop
  endfacet
  facet normal 0 0 -1
    outer loop
      vertex 52 50 0
      vertex 67 56 0
      vertex 67 50 0
    endloop
  endfacet
  facet normal -0 0 -1
    outer loop
      vertex 67 56 0
      vertex 52 50 0
      vertex 52 56 0
    endloop
  endfacet
  facet normal 0 -1 0
    outer loop
      vertex 0 0 0
      vertex 71 0 15
      vertex 0 0 15
    endloop
  endfacet
  facet normal 0 -1 -0
    outer loop
      vertex 71 0 15
      vertex 0 0 0
      vertex 71 0 0
    endloop
  endfacet
  facet normal 1 0 0
    outer loop
      vertex 1.5 49 15
      vertex 1.5 1.5 15
      vertex 1.5 49 6.5
    endloop
  endfacet
  facet normal 1 0 0
    outer loop
      vertex 1.5 54 6.5
      vertex 1.5 58.5 15
      vertex 1.5 54 15
    endloop
  endfacet
  facet normal 1 0 0
    outer loop
      vertex 1.5 58.5 15
      vertex 1.5 54 6.5
      vertex 1.5 58.5 1
    endloop
  endfacet
  facet normal 1 -0 0
    outer loop
      vertex 1.5 49 6.5
      vertex 1.5 58.5 1
      vertex 1.5 54 6.5
    endloop
  endfacet
  facet normal 1 0 0
    outer loop
      vertex 1.5 1.5 1
      vertex 1.5 49 6.5
      vertex 1.5 1.5 15
    endloop
  endfacet
  facet normal 1 0 0
    outer loop
      vertex 1.5 49 6.5
      vertex 1.5 1.5 1
      vertex 1.5 58.5 1
    endloop
  endfacet
  facet normal -1 0 0
    outer loop
      vertex 69.5 1.5 1
      vertex 69.5 58.5 15
      vertex 69.5 58.5 1
    endloop
  endfacet
  facet normal -1 -0 0
    outer loop
      vertex 69.5 58.5 15
      vertex 69.5 1.5 1
      vertex 69.5 1.5 15
    endloop
  endfacet
  facet normal 0 -1 0
    outer loop
      vertex 1.5 58.5 1
      vertex 69.5 58.5 15
      vertex 1.5 58.5 15
    endloop
  endfacet
  facet normal 0 -1 -0
    outer loop
      vertex 69.5 58.5 15
      vertex 1.5 58.5 1
      vertex 69.5 58.5 1
    endloop
  endfacet
  facet normal 0 1 -0
    outer loop
      vertex 69.5 1.5 1
      vertex 1.5 1.5 15
      vertex 69.5 1.5 15
    endloop
  endfacet
  facet normal 0 1 0
    outer loop
      vertex 1.5 1.5 15
      vertex 69.5 1.5 1
      vertex 1.5 1.5 1
    endloop
  endfacet
  facet normal 1 -0 0
    outer loop
      vertex 7 39 1
      vertex 7 46 0
      vertex 7 46 1
    endloop
  endfacet
  facet normal 1 -0 0
    outer loop
      vertex 7 21 1
      vertex 7 46 0
      vertex 7 39 1
    endloop
  endfacet
  facet normal 1 0 0
    outer loop
      vertex 7 14 0
      vertex 7 21 1
      vertex 7 14 1
    endloop
  endfacet
  facet normal 1 0 0
    outer loop
      vertex 7 21 1
      vertex 7 14 0
      vertex 7 46 0
    endloop
  endfacet
  facet normal -1 0 0
    outer loop
      vertex 39 14 0
      vertex 39 46 1
      vertex 39 46 0
    endloop
  endfacet
  facet normal -1 -0 0
    outer loop
      vertex 39 46 1
      vertex 39 14 0
      vertex 39 14 1
    endloop
  endfacet
  facet normal 0 1 -0
    outer loop
      vertex 39 14 0
      vertex 7 14 1
      vertex 39 14 1
    endloop
  endfacet
  facet normal 0 1 0
    outer loop
      vertex 7 14 1
      vertex 39 14 0
      vertex 7 14 0
    endloop
  endfacet
  facet normal 0 -1 0
    outer loop
      vertex 7 46 0
      vertex 39 46 1
      vertex 7 46 1
    endloop
  endfacet
  facet normal 0 -1 -0
    outer loop
      vertex 39 46 1
      vertex 7 46 0
      vertex 39 46 0
    endloop
  endfacet
  facet normal 1 -0 0
    outer loop
      vertex 52 3 1
      vertex 52 4 0
      vertex 52 4 1
    endloop
  endfacet
  facet normal 1 0 0
    outer loop
      vertex 52 4 0
      vertex 52 3 1
      vertex 52 3 0
    endloop
  endfacet
  facet normal 1 -0 0
    outer loop
      vertex 52 10 1
      vertex 52 11 0
      vertex 52 11 1
    endloop
  endfacet
  facet normal 1 0 0
    outer loop
      vertex 52 11 0
      vertex 52 10 1
      vertex 52 10 0
    endloop
  endfacet
  facet normal 0 -1 0
    outer loop
      vertex 52 11 0
      vertex 68 11 1
      vertex 52 11 1
    endloop
  endfacet
  facet normal 0 -1 -0
    outer loop
      vertex 68 11 1
      vertex 52 11 0
      vertex 68 11 0
    endloop
  endfacet
  facet normal 1 -0 0
    outer loop
      vertex 52 49 1
      vertex 52 50 0
      vertex 52 50 1
    endloop
  endfacet
  facet normal 1 0 0
    outer loop
      vertex 52 50 0
      vertex 52 49 1
      vertex 52 49 0
    endloop
  endfacet
  facet normal 1 -0 0
    outer loop
      vertex 52 56 1
      vertex 52 57 0
      vertex 52 57 1
    endloop
  endfacet
  facet normal 1 0 0
    outer loop
      vertex 52 57 0
      vertex 52 56 1
      vertex 52 56 0
    endloop
  endfacet
  facet normal 0 1 -0
    outer loop
      vertex 68 49 0
      vertex 52 49 1
      vertex 68 49 1
    endloop
  endfacet
  facet normal 0 1 0
    outer loop
      vertex 52 49 1
      vertex 68 49 0
      vertex 52 49 0
    endloop
  endfacet
  facet normal -0 0 1
    outer loop
      vertex 0 54 6.5
      vertex 1.5 49 6.5
      vertex 1.5 54 6.5
    endloop
  endfacet
  facet normal 0 0 1
    outer loop
      vertex 1.5 49 6.5
      vertex 0 54 6.5
      vertex 0 49 6.5
    endloop
  endfacet
  facet normal 0 1 -0
    outer loop
      vertex 1.5 49 6.5
      vertex 0 49 15
      vertex 1.5 49 15
    endloop
  endfacet
  facet normal 0 1 0
    outer loop
      vertex 0 49 15
      vertex 1.5 49 6.5
      vertex 0 49 6.5
    endloop
  endfacet
  facet normal 0 -1 0
    outer loop
      vertex 0 54 6.5
      vertex 1.5 54 15
      vertex 0 54 15
    endloop
  endfacet
  facet normal 0 -1 -0
    outer loop
      vertex 1.5 54 15
      vertex 0 54 6.5
      vertex 1.5 54 6.5
    endloop
  endfacet
  facet normal -1 0 0
    outer loop
      vertex 50 11.5 4
      vertex 50 13.5 1
      vertex 50 11.5 1
    endloop
  endfacet
  facet normal -1 0 0
    outer loop
      vertex 50 13.5 1
      vertex 50 11.5 4
      vertex 50 13.5 10
    endloop
  endfacet
  facet normal -1 0 0
    outer loop
      vertex 50 3 10
      vertex 50 11.5 4
      vertex 50 3 4
    endloop
  endfacet
  facet normal -1 0 0
    outer loop
      vertex 50 11.5 4
      vertex 50 3 10
      vertex 50 13.5 10
    endloop
  endfacet
  facet normal 0 0 1
    outer loop
      vertex 68 13.5 10
      vertex 65.1 9.7 10
      vertex 68 3 10
    endloop
  endfacet
  facet normal -0 0 1
    outer loop
      vertex 50 13.5 10
      vertex 65.1 9.7 10
      vertex 68 13.5 10
    endloop
  endfacet
  facet normal 0 0 1
    outer loop
      vertex 50 3 10
      vertex 52 9.7 10
      vertex 50 13.5 10
    endloop
  endfacet
  facet normal 0 0 1
    outer loop
      vertex 65.1 9.7 10
      vertex 50 13.5 10
      vertex 52 9.7 10
    endloop
  endfacet
  facet normal -0 0 1
    outer loop
      vertex 65.1 3.4 10
      vertex 68 3 10
      vertex 65.1 9.7 10
    endloop
  endfacet
  facet normal 0 0 1
    outer loop
      vertex 50 3 10
      vertex 65.1 3.4 10
      vertex 52 3.4 10
    endloop
  endfacet
  facet normal 0 0 1
    outer loop
      vertex 65.1 3.4 10
      vertex 50 3 10
      vertex 68 3 10
    endloop
  endfacet
  facet normal 0 0 1
    outer loop
      vertex 52 9.7 10
      vertex 50 3 10
      vertex 52 3.4 10
    endloop
  endfacet
  facet normal 0 0 -1
    outer loop
      vertex 65.1 9.7 4
      vertex 68 3 4
      vertex 65.1 3.4 4
    endloop
  endfacet
  facet normal 0 0 -1
    outer loop
      vertex 50 3 4
      vertex 65.1 3.4 4
      vertex 68 3 4
    endloop
  endfacet
  facet normal -0 0 -1
    outer loop
      vertex 52 3.4 4
      vertex 50 3 4
      vertex 52 9.7 4
    endloop
  endfacet
  facet normal -0 0 -1
    outer loop
      vertex 65.1 3.4 4
      vertex 50 3 4
      vertex 52 3.4 4
    endloop
  endfacet
  facet normal 0 0 -1
    outer loop
      vertex 68 3 4
      vertex 65.1 9.7 4
      vertex 68 11.5 4
    endloop
  endfacet
  facet normal 0 0 -1
    outer loop
      vertex 50 11.5 4
      vertex 65.1 9.7 4
      vertex 52 9.7 4
    endloop
  endfacet
  facet normal 0 0 -1
    outer loop
      vertex 65.1 9.7 4
      vertex 50 11.5 4
      vertex 68 11.5 4
    endloop
  endfacet
  facet normal 0 0 -1
    outer loop
      vertex 50 11.5 4
      vertex 52 9.7 4
      vertex 50 3 4
    endloop
  endfacet
  facet normal 1 -0 0
    outer loop
      vertex 52 3.4 10
      vertex 52 9.7 4
      vertex 52 9.7 10
    endloop
  endfacet
  facet normal 1 0 0
    outer loop
      vertex 52 9.7 4
      vertex 52 3.4 10
      vertex 52 3.4 4
    endloop
  endfacet
  facet normal -1 0 0
    outer loop
      vertex 65.1 3.4 4
      vertex 65.1 9.7 10
      vertex 65.1 9.7 4
    endloop
  endfacet
  facet normal -1 -0 0
    outer loop
      vertex 65.1 9.7 10
      vertex 65.1 3.4 4
      vertex 65.1 3.4 10
    endloop
  endfacet
  facet normal 0 -1 0
    outer loop
      vertex 52 9.7 4
      vertex 65.1 9.7 10
      vertex 52 9.7 10
    endloop
  endfacet
  facet normal 0 -1 -0
    outer loop
      vertex 65.1 9.7 10
      vertex 52 9.7 4
      vertex 65.1 9.7 4
    endloop
  endfacet
  facet normal 0 1 -0
    outer loop
      vertex 65.1 3.4 4
      vertex 52 3.4 10
      vertex 65.1 3.4 10
    endloop
  endfacet
  facet normal 0 1 0
    outer loop
      vertex 52 3.4 10
      vertex 65.1 3.4 4
      vertex 52 3.4 4
    endloop
  endfacet
  facet normal -1 0 0
    outer loop
      vertex 50 48.8 1
      vertex 50 46.8 1
      vertex 50 48.8 4
    endloop
  endfacet
  facet normal -1 0 0
    outer loop
      vertex 50 48.8 4
      vertex 50 57 10
      vertex 50 57 4
    endloop
  endfacet
  facet normal -1 0 0
    outer loop
      vertex 50 48.8 4
      vertex 50 46.8 10
      vertex 50 57 10
    endloop
  endfacet
  facet normal -1 0 0
    outer loop
      vertex 50 46.8 10
      vertex 50 48.8 4
      vertex 50 46.8 1
    endloop
  endfacet
  facet normal 0 0 1
    outer loop
      vertex 65.1 50.2 10
      vertex 68 57 10
      vertex 65.1 56.5 10
    endloop
  endfacet
  facet normal -0 0 1
    outer loop
      vertex 50 57 10
      vertex 65.1 56.5 10
      vertex 68 57 10
    endloop
  endfacet
  facet normal 0 0 1
    outer loop
      vertex 52 56.5 10
      vertex 50 57 10
      vertex 52 50.2 10
    endloop
  endfacet
  facet normal 0 0 1
    outer loop
      vertex 65.1 56.5 10
      vertex 50 57 10
      vertex 52 56.5 10
    endloop
  endfacet
  facet normal 0 0 1
    outer loop
      vertex 68 57 10
      vertex 65.1 50.2 10
      vertex 68 46.8 10
    endloop
  endfacet
  facet normal 0 0 1
    outer loop
      vertex 50 46.8 10
      vertex 65.1 50.2 10
      vertex 52 50.2 10
    endloop
  endfacet
  facet normal 0 0 1
    outer loop
      vertex 65.1 50.2 10
      vertex 50 46.8 10
      vertex 68 46.8 10
    endloop
  endfacet
  facet normal 0 0 1
    outer loop
      vertex 50 46.8 10
      vertex 52 50.2 10
      vertex 50 57 10
    endloop
  endfacet
  facet normal 0 0 -1
    outer loop
      vertex 68 48.8 4
      vertex 65.1 50.2 4
      vertex 68 57 4
    endloop
  endfacet
  facet normal 0 0 -1
    outer loop
      vertex 50 48.8 4
      vertex 65.1 50.2 4
      vertex 68 48.8 4
    endloop
  endfacet
  facet normal 0 0 -1
    outer loop
      vertex 50 57 4
      vertex 52 50.2 4
      vertex 50 48.8 4
    endloop
  endfacet
  facet normal -0 0 -1
    outer loop
      vertex 65.1 50.2 4
      vertex 50 48.8 4
      vertex 52 50.2 4
    endloop
  endfacet
  facet normal 0 0 -1
    outer loop
      vertex 65.1 56.5 4
      vertex 68 57 4
      vertex 65.1 50.2 4
    endloop
  endfacet
  facet normal 0 0 -1
    outer loop
      vertex 50 57 4
      vertex 65.1 56.5 4
      vertex 52 56.5 4
    endloop
  endfacet
  facet normal 0 0 -1
    outer loop
      vertex 65.1 56.5 4
      vertex 50 57 4
      vertex 68 57 4
    endloop
  endfacet
  facet normal 0 0 -1
    outer loop
      vertex 52 50.2 4
      vertex 50 57 4
      vertex 52 56.5 4
    endloop
  endfacet
  facet normal 1 -0 0
    outer loop
      vertex 52 50.2 10
      vertex 52 56.5 4
      vertex 52 56.5 10
    endloop
  endfacet
  facet normal 1 0 0
    outer loop
      vertex 52 56.5 4
      vertex 52 50.2 10
      vertex 52 50.2 4
    endloop
  endfacet
  facet normal -1 0 0
    outer loop
      vertex 65.1 50.2 4
      vertex 65.1 56.5 10
      vertex 65.1 56.5 4
    endloop
  endfacet
  facet normal -1 -0 0
    outer loop
      vertex 65.1 56.5 10
      vertex 65.1 50.2 4
      vertex 65.1 50.2 10
    endloop
  endfacet
  facet normal 0 1 -0
    outer loop
      vertex 65.1 50.2 4
      vertex 52 50.2 10
      vertex 65.1 50.2 10
    endloop
  endfacet
  facet normal 0 1 0
    outer loop
      vertex 52 50.2 10
      vertex 65.1 50.2 4
      vertex 52 50.2 4
    endloop
  endfacet
  facet normal 0 -1 0
    outer loop
      vertex 52 56.5 4
      vertex 65.1 56.5 10
      vertex 52 56.5 10
    endloop
  endfacet
  facet normal 0 -1 -0
    outer loop
      vertex 65.1 56.5 10
      vertex 52 56.5 4
      vertex 65.1 56.5 4
    endloop
  endfacet
  facet normal -0 0 1
    outer loop
      vertex 52 10 1
      vertex 67 4 1
      vertex 67 10 1
    endloop
  endfacet
  facet normal 0 0 1
    outer loop
      vertex 67 4 1
      vertex 52 10 1
      vertex 52 4 1
    endloop
  endfacet
  facet normal 1 -0 0
    outer loop
      vertex 67 4 1
      vertex 67 10 0
      vertex 67 10 1
    endloop
  endfacet
  facet normal 1 0 0
    outer loop
      vertex 67 10 0
      vertex 67 4 1
      vertex 67 4 0
    endloop
  endfacet
  facet normal 0 -1 0
    outer loop
      vertex 52 4 0
      vertex 67 4 1
      vertex 52 4 1
    endloop
  endfacet
  facet normal 0 -1 -0
    outer loop
      vertex 67 4 1
      vertex 52 4 0
      vertex 67 4 0
    endloop
  endfacet
  facet normal 0 1 -0
    outer loop
      vertex 67 10 0
      vertex 52 10 1
      vertex 67 10 1
    endloop
  endfacet
  facet normal 0 1 0
    outer loop
      vertex 52 10 1
      vertex 67 10 0
      vertex 52 10 0
    endloop
  endfacet
  facet normal -0 0 1
    outer loop
      vertex 52 56 1
      vertex 67 50 1
      vertex 67 56 1
    endloop
  endfacet
  facet normal 0 0 1
    outer loop
      vertex 67 50 1
      vertex 52 56 1
      vertex 52 50 1
    endloop
  endfacet
  facet normal 1 -0 0
    outer loop
      vertex 67 50 1
      vertex 67 56 0
      vertex 67 56 1
    endloop
  endfacet
  facet normal 1 0 0
    outer loop
      vertex 67 56 0
      vertex 67 50 1
      vertex 67 50 0
    endloop
  endfacet
  facet normal 0 1 -0
    outer loop
      vertex 67 56 0
      vertex 52 56 1
      vertex 67 56 1
    endloop
  endfacet
  facet normal 0 1 0
    outer loop
      vertex 52 56 1
      vertex 67 56 0
      vertex 52 56 0
    endloop
  endfacet
  facet normal 0 -1 0
    outer loop
      vertex 52 50 0
      vertex 67 50 1
      vertex 52 50 1
    endloop
  endfacet
  facet normal 0 -1 -0
    outer loop
      vertex 67 50 1
      vertex 52 50 0
      vertex 67 50 0
    endloop
  endfacet
  facet normal -1 0 0
    outer loop
      vertex 19 52 1.4
      vertex 19 53 2.4
      vertex 19 53 1.4
    endloop
  endfacet
  facet normal -1 -0 0
    outer loop
      vertex 19 53 2.4
      vertex 19 52 1.4
      vertex 19 52 2.4
    endloop
  endfacet
  facet normal -0 0 1
    outer loop
      vertex 19 53 2.4
      vertex 29 52 2.4
      vertex 29 53 2.4
    endloop
  endfacet
  facet normal 0 0 1
    outer loop
      vertex 29 52 2.4
      vertex 19 53 2.4
      vertex 19 52 2.4
    endloop
  endfacet
  facet normal 1 -0 0
    outer loop
      vertex 29 52 2.4
      vertex 29 53 1.4
      vertex 29 53 2.4
    endloop
  endfacet
  facet normal 1 0 0
    outer loop
      vertex 29 53 1.4
      vertex 29 52 2.4
      vertex 29 52 1.4
    endloop
  endfacet
  facet normal 0 1 -0
    outer loop
      vertex 29 53 1.4
      vertex 19 53 2.4
      vertex 29 53 2.4
    endloop
  endfacet
  facet normal 0 1 0
    outer loop
      vertex 19 53 2.4
      vertex 29 53 1.4
      vertex 19 53 1.4
    endloop
  endfacet
  facet normal 0 0 -1
    outer loop
      vertex 19 52 1.4
      vertex 29 53 1.4
      vertex 29 52 1.4
    endloop
  endfacet
  facet normal -0 0 -1
    outer loop
      vertex 29 53 1.4
      vertex 19 52 1.4
      vertex 19 53 1.4
    endloop
  endfacet
  facet normal 0 -1 0
    outer loop
      vertex 19 52 1.4
      vertex 29 52 2.4
      vertex 19 52 2.4
    endloop
  endfacet
  facet normal 0 -1 -0
    outer loop
      vertex 29 52 2.4
      vertex 19 52 1.4
      vertex 29 52 1.4
    endloop
  endfacet
  facet normal 0 -1 0
    outer loop
      vertex 50 11.5 1
      vertex 68 11.5 4
      vertex 50 11.5 4
    endloop
  endfacet
  facet normal 0 -1 -0
    outer loop
      vertex 68 11.5 4
      vertex 50 11.5 1
      vertex 68 11.5 1
    endloop
  endfacet
  facet normal 0 1 -0
    outer loop
      vertex 68 13.5 1
      vertex 50 13.5 10
      vertex 68 13.5 10
    endloop
  endfacet
  facet normal 0 1 0
    outer loop
      vertex 50 13.5 10
      vertex 68 13.5 1
      vertex 50 13.5 1
    endloop
  endfacet
  facet normal 0 1 -0
    outer loop
      vertex 68 48.8 1
      vertex 50 48.8 4
      vertex 68 48.8 4
    endloop
  endfacet
  facet normal 0 1 0
    outer loop
      vertex 50 48.8 4
      vertex 68 48.8 1
      vertex 50 48.8 1
    endloop
  endfacet
  facet normal 0 -1 0
    outer loop
      vertex 50 46.8 1
      vertex 68 46.8 10
      vertex 50 46.8 10
    endloop
  endfacet
  facet normal 0 -1 -0
    outer loop
      vertex 68 46.8 10
      vertex 50 46.8 1
      vertex 68 46.8 1
    endloop
  endfacet
endsolid OpenSCAD_Model
